<svg preserveAspectRatio="xMidYMid meet" data-bbox="20 34 160 132" viewBox="20 34 160 132" height="200" width="200" xmlns="http://www.w3.org/2000/svg" data-type="color" role="img" aria-labelledby="comp-k03gpw5m-svgtitle"><title id="comp-k03gpw5m-svgtitle">Abacus Icon</title>
    <g>
        <path d="M156.468 44.759c-7.477 38.017-11.543 76.593-18.581 114.683-1.298 7.025 7.111 9.374 8.437 2.195 7.038-38.09 11.104-76.667 18.581-114.683 1.381-7.025-7.03-9.353-8.437-2.195z" fill="#213472" data-color="1"></path>
        <path d="M36.683 39.219c-6.486 35.793-11.471 71.844-16.595 107.851-1.071 7.528 8.022 6.622 8.957.058C34.168 111.12 39.153 75.07 45.639 39.277c1.359-7.5-7.782-6.538-8.956-.058z" fill="#213472" data-color="1"></path>
        <path d="M145.919 117.158c6.899 13.594 15.933 26.049 22.398 39.849 2.336 4.987 13.869 3.733 11.317-1.715-6.812-14.541-16.192-27.675-23.457-41.989-2.475-4.876-13.313-2.164-10.258 3.855z" fill="#213472" data-color="1"></path>
        <path d="M23.487 108.234c8.647 10.026 19.014 18.352 27.536 28.445 1.832 2.17 4.849 3.754 7.748 2.741 2.31-.807 3.896-3.628 2.057-5.806-9.123-10.804-20.055-19.794-29.299-30.513-3.968-4.603-12.979-.591-8.042 5.133z" fill="#213472" data-color="1"></path>
        <path d="M160.471 59.989a1769.943 1769.943 0 0 1-120.488-6.642c-1.564-.14-1.555 2.3 0 2.439a1769.943 1769.943 0 0 0 120.488 6.642c1.571.033 1.571-2.406 0-2.439z" fill="#213472" data-color="1"></path>
        <path d="M157.058 70.817A1243.057 1243.057 0 0 1 35.522 63.22c-1.559-.174-1.546 2.266 0 2.439a1243.057 1243.057 0 0 0 121.536 7.597c1.571.021 1.572-2.418 0-2.439z" fill="#213472" data-color="1"></path>
        <path d="M151.549 87.438L32.847 76.021c-1.563-.15-1.552 2.29 0 2.439l118.702 11.417c1.563.15 1.553-2.29 0-2.439z" fill="#213472" data-color="1"></path>
        <path d="M149.803 102.384A1351.954 1351.954 0 0 1 31.839 89.819c-1.537-.232-2.2 2.117-.649 2.352a1359.35 1359.35 0 0 0 118.613 12.652c1.569.098 1.563-2.341 0-2.439z" fill="#213472" data-color="1"></path>
        <path d="M148.598 115.169c-39.843-1.254-79.333-6.805-118.762-12.318-1.536-.215-2.201 2.135-.649 2.352 39.644 5.543 79.35 11.144 119.411 12.405 1.571.049 1.57-2.39 0-2.439z" fill="#213472" data-color="1"></path>
        <path d="M133.809 64.652c2.587.737 5.551-.019 7.384-2.018a6.896 6.896 0 0 0 .857-8.136c-1.497-2.557-4.504-3.894-7.401-3.198-3.063.736-4.962 3.364-5.226 6.392-.185 2.124 2.003 4.157 4.069 4.065 2.362-.106 3.871-1.789 4.069-4.065.01.364-.08.701-.27 1.01.233-.369.187-.312-.137.171-.474.33-.525.378-.151.144-.552.206-.615.247-.19.122a1.721 1.721 0 0 1-1.06.01c-.528-.268-.598-.296-.211-.083-.447-.37-.515-.402-.203-.094a1.423 1.423 0 0 1-.489-.843c.119.439.13.348.031-.275-.003.454.024.366.082-.263.27-.531.299-.601.088-.213.374-.446.407-.512.101-.198.465-.342.51-.398.133-.17.547-.213.608-.255.182-.126.621-.059.703-.082.247-.067.616.109.702.107.258-.005-2.045-.583-4.52.712-5.005 2.839-.493 2.166.652 4.377 2.842 5.001z" fill="#F97338" data-color="2"></path>
        <path d="M116.183 59.795c1.381.355 2.69-1.319 2.237-2.651-.453-1.332-2.137-1.987-3.518-1.634-1.381.353-2.448 1.813-1.934 3.054.754 1.823 3.215 1.231 3.215 1.231z" fill="#F97338" data-color="2"></path>
        <path d="M115.102 63.714c2.225.361 4.167-.084 5.762-1.741 1.472-1.529 2.079-3.868 1.48-5.91-1.197-4.077-6.135-5.722-9.785-3.971-3.72 1.784-5.122 6.884-2.074 9.965 1.764 1.782 4.411 2.198 6.781 1.658 2.077-.474 3.497-2.976 2.842-5-.704-2.172-2.779-3.346-5.005-2.839-.582.133.507-.095.617-.074-.108-.021-.31.083-.399.02-.09.002-.181 0-.271-.006l.695.101c-.174-.037-.753-.24-.103.028.319.151.386.174.201.069-.262-.16-.13-.061.395.295.486.461.567.923.569 1.578.099.329.064.627-.106.894-.156.306-.143.297.038-.025a2.32 2.32 0 0 1-.614.631c.331-.182.352-.2.062-.054a1.106 1.106 0 0 1-.718.154c.539-.018.025-.025-.221-.086.855.212-.444-.323-.039-.067.304.192-.45-.452-.544-.634-.203-.393-.242-.848-.185-1.277.186-1.386 1.544-1.749 2.785-1.548-2.092-.339-4.481.541-5.005 2.839-.446 1.955.595 4.636 2.842 5z" fill="#F97338" data-color="2"></path>
        <path d="M108.021 57.145c-.167-1.109-.891-1.86-1.982-2.185-1.039-.31-2.224-.285-3.145.279-.921.564-1.792 1.894-1.14 2.749 2.12 2.779 6.63 1.566 6.267-.843z" fill="#F97338" data-color="2"></path>
        <path d="M111.944 56.065c-.829-4.002-5.224-6.027-9.006-5.162-4.025.92-7.237 5.853-4.379 9.549 1.98 2.56 5.187 3.646 8.341 2.981 2.844-.6 5.465-3.228 5.189-6.286-.19-2.112-1.735-4.169-4.069-4.065-2.041.091-4.273 1.797-4.069 4.065.058.649.2-.517.261-.729.158-.319.187-.386.084-.202-.106.177-.062.124.134-.157.154-.139 1.047-.759.478-.475-.558.279.295-.138.316-.116-.042-.044-.948.305-.207.086.806-.238-.274.127-.255-.04.01-.089.924.247.266.015-.7-.247.523.117.046.041-.195-.031-.502-.464-.199-.105.211.166.234.17.068.012-.695-.756-.499.05.586 2.419-.067.227-.13.46-.296.64-.188.203-.507.174-.67.302-.24.188.42-.008.13-.031-.267-.052-.18-.027.261.076l-.363-.164.269.16-.364-.243c-.186-.21-.545-1.1-.402-.407.432 2.086 3.008 3.485 5.005 2.839 2.213-.717 3.308-2.769 2.845-5.003z" fill="#F97338" data-color="2"></path>
        <path d="M94.259 54.02c.552-.055.671-.079.357-.07-.316-.006-.196.022.358.085.022-.014-1.075-.06-.33-.037.766.024-.349.012-.24-.163.44.367.554.446.342.237-.219-.228-.123-.105.288.37.453.733.423 2.041-.013 2.774l-.412.524c.22-.205.184-.185-.106.058-.572.482.047.08.14-.014-.586.233-.728.303-.426.208.115-.036.232-.067.35-.091.673-.197-.671-.039-.225.042.13.024.484.064.617.019-.637-.101-.799-.113-.488-.037.303.086.163.015-.421-.214.622.36-.596-.644-.067-.084-.388-.41-.625-.847-.703-1.413-.03-.219.194-1.446.005-.84.063-.325.205-.605.427-.839.245-.29.255-.318.029-.084.187-.179 1.381-.688.699-.475-2.028.635-3.535 2.861-2.842 5 .66 2.036 2.83 3.519 5.005 2.839 3.631-1.136 5.946-4.964 4.098-8.579-1.546-3.024-5.211-3.836-8.299-3.174-3.271.702-5.982 3.879-4.899 7.319 1.183 3.757 5.386 5.08 8.917 4.477 2.103-.359 3.472-3.055 2.842-5-.733-2.266-2.749-3.223-5.003-2.838z" fill="#F97338" data-color="2"></path>
        <path fill="#F97338" d="M146.287 53.063c3.297.087 5.901 2.786 5.816 6.03-.085 3.244-2.827 5.805-6.124 5.718-3.297-.086-5.9-2.785-5.816-6.03.085-3.244 2.827-5.804 6.124-5.718z" data-color="2"></path>
        <path fill="#F97338" d="M125.917 52.628c3.207.084 5.74 2.71 5.657 5.865-.083 3.155-2.749 5.645-5.957 5.561-3.207-.084-5.74-2.71-5.657-5.865.083-3.155 2.749-5.645 5.957-5.56z" data-color="2"></path>
        <path d="M130.701 58.509c-.514 6.215-10.085 5.946-9.87-.322.215-6.281 9.702-5.904 9.87.322.03 1.119 1.774 1.123 1.744 0-.097-3.612-2.785-6.657-6.52-6.745-3.577-.084-6.772 2.805-6.838 6.423-.064 3.506 2.72 6.473 6.204 6.72 3.871.275 6.845-2.667 7.153-6.398.093-1.118-1.651-1.112-1.743 0z" fill="#F97338" data-color="2"></path>
        <path d="M56.407 69.767c-1.217.262-2.582-.567-2.859-1.78-.277-1.213.643-2.577 1.879-2.727s2.474 1.012 2.352 2.25" fill="#4692D8" data-color="3"></path>
        <path d="M55.325 65.847c.414-.13.828-.129 1.242.003-.412-.115-.307-.054.314.183-.683-.388.613.66.084.082.292.28.482.618.57 1.013-.084-.326-.089-.296-.016.088.079.311.064.622-.045.934.122-.41.068-.302-.163.323.228-.358.155-.269-.218.269l-.467.345c.373-.209.258-.165-.346.133-.4.115-.802.12-1.204.016l-.517-.226c.363.229.284.167-.237-.185a1.94 1.94 0 0 1-.546-.959c-.042-.686-.064-.805-.066-.357-.057 2.127 1.912 4.161 4.069 4.065 2.253-.101 4.007-1.786 4.069-4.065.075-2.768-1.872-5.273-4.492-6.073-2.658-.811-5.492.441-6.948 2.736-1.255 1.978-1.319 4.736.02 6.692 1.655 2.418 4.244 3.268 7.061 2.822 2.108-.334 3.466-3.073 2.842-5-.742-2.287-2.746-3.197-5.006-2.839z" fill="#4692D8" data-color="3"></path>
        <path d="M74 70.639c-1.296.174-2.299-1.517-1.738-2.697.561-1.18 2.166-1.599 3.383-1.12s2.023 1.946 1.418 3.036c-.89 1.601-3.063.781-3.063.781z" fill="#4692D8" data-color="3"></path>
        <path d="M74 66.574c-.469.001-.306.07.489.206.48.025.874.217 1.181.577-.22-.233-.21-.211.032.066a1.5 1.5 0 0 1 .418.775c-.216-.609.044.476.018.721-.052.488-.229.96-.582 1.315-.528.368-.609.441-.244.219l-.522.227c.727-.25-.881-.039-.107.014l-.59-.09c.324.094.32.076-.012-.052-.326-.156-.334-.148-.026.022a1.236 1.236 0 0 1-.571-.523c-.197-.287-.202-.286-.017.001l-.213-.514c-.142-.559-.008-1.246.297-1.731.134-.213 1.185-.963.695-.704l.609-.267c-.303.067-.247.065.17-.005.739-.113.196-.046-.001-.052-.642-.02.974.265.474.058-.13-.054-.281-.069-.415-.117-2.003-.728-4.544.817-5.005 2.839-.523 2.292.697 4.22 2.842 5 2.262.822 5.058.265 6.749-1.447 2.903-2.939 1.69-7.929-1.85-9.745-3.48-1.784-8.18-.375-9.478 3.495-1.224 3.648 1.649 8.054 5.661 7.842 2.122-.112 4.171-1.789 4.069-4.065-.097-2.106-1.795-4.185-4.071-4.065z" fill="#4692D8" data-color="3"></path>
        <path d="M81.721 69.097c.276-1.006 1.019-1.619 2.047-1.799.98-.171 2.055-.016 2.83.606.775.623 1.418 1.949.729 2.666-2.239 2.332-6.206.711-5.606-1.473z" fill="#4692D8" data-color="3"></path>
        <path d="M85.644 70.177c-.138.415-.432.61-.705.915-.244.159-.271.181-.082.065.191-.108.16-.098-.093.028-.312.127-.284.138.086.033l-.419.081c.467-.022.26-.005-.091-.04.643.064.015.022-.238-.164-.211-.155-.546-.832-.282-.243-.236-.526-.31-1.241-.166-1.805l.574-1.137c.402-.292.478-.361.229-.208-.478.284.711-.264.209-.076-.735.275.07-.209.165.017.002.004-.508-.02-.517-.009.104-.123 1.026.226.227-.027-.487-.154.745.373.323.125-.414-.243.65.668.211.169.062.071.544.787.277.326.358.614.438 1.258.292 1.95.436-2.075-.609-4.492-2.842-5-2.039-.464-4.537.614-5.005 2.839-.713 3.394 1.224 6.327 4.465 7.391 2.962.973 7.028-.062 8.655-2.891 2.09-3.633-.532-7.939-4.257-9.051-3.788-1.131-7.627.842-8.864 4.55-.673 2.019.777 4.53 2.842 5 2.247.512 4.286-.676 5.006-2.838z" fill="#4692D8" data-color="3"></path>
        <path d="M94.178 71.841c1.181.547 2.76-.539 2.671-1.837-.089-1.297-1.802-2.157-2.897-1.454-1.095.703-1.024 2.617.12 3.237" fill="#4692D8" data-color="3"></path>
        <path d="M93.097 75.76c2.838 1.137 6.21-.775 7.328-3.42.685-1.623.642-3.408-.221-4.973-.754-1.368-1.98-2.248-3.414-2.794-2.575-.98-5.768.219-6.983 2.707-1.396 2.856-.563 6.333 2.212 8.016 1.821 1.105 4.552.46 5.567-1.458 1.045-1.975.485-4.382-1.46-5.561a1.502 1.502 0 0 1-.245-.165l.823.636a2.287 2.287 0 0 1-.295-.319l.636.823a2.676 2.676 0 0 1-.208-.383l.41.971a2.814 2.814 0 0 1-.141-.572l.145 1.081a2.859 2.859 0 0 1 .018-.592l-.145 1.081a2.84 2.84 0 0 1 .119-.424l-.41.971c.062-.137.127-.256.21-.381l-.636.823c.095-.119.187-.215.302-.315l-.823.636c.13-.092.249-.161.395-.226l-.972.41c.149-.05.284-.082.44-.104l-1.082.145c.157-.009.298-.005.454.012l-1.082-.145c.207.038.395.094.588.175l-.972-.41c.142.071.268.146.398.236l-.823-.636c.163.131.3.268.429.432l-.636-.823c.087.131.153.253.215.397l-.41-.971c.036.095.063.193.08.293l-.145-1.081c.02.165.022.307.007.473l.145-1.081a2.427 2.427 0 0 1-.131.451l.41-.971a2.93 2.93 0 0 1-.247.404l.636-.823a3.2 3.2 0 0 1-.339.34l.823-.636a2.84 2.84 0 0 1-.553.324l.972-.41a2.94 2.94 0 0 1-.459.125l1.082-.145a2.47 2.47 0 0 1-.471.005l1.082.145a2.282 2.282 0 0 1-.458-.131c-.916-.367-2.321-.066-3.135.41-.844.493-1.649 1.46-1.87 2.429-.237 1.041-.186 2.209.41 3.132.608.944 1.392 1.451 2.43 1.867z" fill="#4692D8" data-color="3"></path>
        <path fill="#4692D8" d="M52.326 66.533a5.47 5.47 0 0 1-5.473 5.468 5.47 5.47 0 0 1-5.473-5.468 5.47 5.47 0 0 1 5.473-5.468 5.47 5.47 0 0 1 5.473 5.468z" data-color="3"></path>
        <path d="M46.856 72.582a6.019 6.019 0 0 1-4.663-2.189 6.005 6.005 0 0 1-1.367-4.423c.311-3.32 3.291-5.781 6.592-5.459 1.61.15 3.065.918 4.097 2.162a6.005 6.005 0 0 1 1.367 4.423c-.293 3.129-2.94 5.486-6.026 5.486zm-.012-10.935a4.856 4.856 0 0 0-3.113 1.125 4.846 4.846 0 0 0-1.748 3.307 4.892 4.892 0 0 0 4.415 5.32c2.661.263 5.074-1.728 5.325-4.412a4.85 4.85 0 0 0-1.105-3.574 4.853 4.853 0 0 0-3.774-1.766z" fill="#4692D8" data-color="3"></path>
        <path fill="#4692D8" d="M70.768 68.24a5.32 5.32 0 0 1-5.323 5.318 5.32 5.32 0 0 1-5.323-5.318 5.32 5.32 0 0 1 5.323-5.318 5.32 5.32 0 0 1 5.323 5.318z" data-color="3"></path>
        <path d="M59.273 67.745c-.132 3.355 2.213 6.394 5.677 6.661 3.324.257 6.319-2.24 6.652-5.556.333-3.316-2.122-6.356-5.429-6.746-3.429-.404-6.373 2.07-6.868 5.409-.163 1.097 1.517 1.57 1.681.463.335-2.261 1.96-4.138 4.375-4.184 2.619-.049 4.712 2.245 4.498 4.824-.483 5.809-9.069 4.887-8.841-.871.043-1.121-1.7-1.119-1.745 0z" fill="#4692D8" data-color="3"></path>
        <path d="M49.883 109.82c-1.271.223-2.669-.65-2.927-1.872-.259-1.222.729-2.557 2.016-2.668s2.546 1.091 2.39 2.326" fill="#BFCAE4" data-color="4"></path>
        <path d="M49.883 105.755a2.341 2.341 0 0 1-.48.034c.679.121.803.128.372.022.591.277.697.312.319.105l.444.346c-.295-.308-.232-.215.189.28.223.629.274.738.153.325.132.412.14.827.025 1.244-.278.565-.343.71-.194.433.153-.266.053-.151-.299.346.307-.294.214-.23-.28.191-.625.222-.73.273-.315.153a1.597 1.597 0 0 1-.877.076 1.432 1.432 0 0 1-.794-.241c-.464-.406-.539-.461-.225-.166a1.923 1.923 0 0 1-.546-.943c-.044-.683-.071-.801-.08-.354-.11 2.127 1.95 4.16 4.069 4.065 2.298-.103 3.951-1.786 4.069-4.065.144-2.789-1.851-5.171-4.379-6.078-2.512-.901-5.284.165-6.862 2.206-1.544 1.997-1.797 4.838-.424 7.007 1.251 1.976 3.727 3.433 6.118 3.143 1.117-.136 2.049-.364 2.877-1.191.706-.705 1.237-1.862 1.192-2.874-.093-1.982-1.81-4.339-4.072-4.064z" fill="#BFCAE4" data-color="4"></path>
        <path d="M68.137 111.255c-1.351.133-2.353-1.591-1.742-2.753.611-1.162 2.288-1.53 3.541-1.011 1.253.518 2.056 2.011 1.401 3.082-.962 1.572-3.2.682-3.2.682z" fill="#BFCAE4" data-color="4"></path>
        <path d="M68.137 107.19c.556-.011 1.261.346 1.633.744l.337.476c-.163-.286-.164-.262-.004.074.035.205.138 1.319.182.673.038.653-.148 1.19-.556 1.609-.237.268-.241.282-.01.041a1.335 1.335 0 0 1-.691.452c-.342.125-.348.134-.021.027.692-.237-.687.057-.195.043.479-.014-.881-.247-.197-.005-.518-.247-.642-.293-.373-.137.258.16.159.085-.296-.226l-.3-.418c.171.304.18.293.027-.034-.061-.51-.229-.933-.072-1.464a2.343 2.343 0 0 1 1.019-1.328l.581-.24c-.424.102-.266.089.473-.039-.206.018-.788-.087-.034.049.76.137.213.04.045-.01-.156-.047-.314-.081-.466-.14-1.991-.763-4.55.842-5.005 2.839-.53 2.323.71 4.183 2.842 5 2.296.88 5.219.341 6.932-1.431 2.882-2.98 1.654-8.021-1.998-9.762-3.206-1.528-7.521-.688-9.198 2.68-1.914 3.843.948 8.746 5.346 8.659 2.126-.042 4.168-1.839 4.069-4.065-.098-2.168-1.79-4.112-4.07-4.067z" fill="#BFCAE4" data-color="4"></path>
        <path d="M76.195 109.96c.311-.997 1.097-1.587 2.169-1.733 1.022-.139 2.135.049 2.925.697s1.426 1.994.694 2.689c-2.381 2.26-6.464.512-5.788-1.653z" fill="#BFCAE4" data-color="4"></path>
        <path d="M80.118 111.04c-.143.381-.305.693-.648.939-.119.085-.841.345-.485.266.357-.079-.666-.117.069.003.458.075.278.077-.055-.008-.381-.202-.443-.231-.186-.089.205.122.198.11-.021-.039-.073-.122-.586-.875-.273-.219-.451-.945.367-2.198.588-3.156.074-.322.619-.259-.04-.021-.537.194.705-.259.172-.101-.224.052-.18.054.131.005.358-.035.356-.041-.005-.017l-.27-.004.554.086c-.015-.041-.572-.154-.622-.162-.475-.079.701.329.305.104-.421-.238.644.649.198.149.065.073.547.773.275.314.342.582.474 1.29.313 1.95.502-2.062-.655-4.503-2.842-5-2.096-.477-4.466.629-5.005 2.839-.833 3.421 1.292 6.341 4.472 7.444 3.005 1.042 6.651.072 8.602-2.452 2.717-3.514-.282-8.316-4.02-9.418-1.54-.454-3.416-.475-4.926.105-2.1.806-3.35 2.242-4.128 4.322-.746 1.995.83 4.542 2.842 5 2.31.525 4.206-.703 5.005-2.84z" fill="#BFCAE4" data-color="4"></path>
        <path d="M89.07 113.103c1.214.584 2.88-.451 2.818-1.751-.062-1.3-1.821-2.215-2.975-1.547s-1.126 2.584.048 3.241" fill="#BFCAE4" data-color="4"></path>
        <path d="M87.016 116.613c.963.407 1.657.732 2.74.719.637-.007 1.327-.084 1.929-.299 1.478-.528 2.647-1.42 3.491-2.758 1.729-2.741.415-6.545-2.386-7.98-2.802-1.435-6.558-.763-8.068 2.221-1.452 2.87-.573 6.323 2.183 8.04 1.808 1.127 4.56.444 5.567-1.458 1.055-1.995.471-4.358-1.46-5.561a1.647 1.647 0 0 1-.251-.173l.823.636a1.675 1.675 0 0 1-.21-.211l.636.823a2.37 2.37 0 0 1-.297-.508l.41.971a3.015 3.015 0 0 1-.115-.429l.145 1.081a2.799 2.799 0 0 1-.009-.593l-.145 1.081c.032-.199.082-.379.157-.566l-.41.971c.068-.136.138-.252.227-.374l-.636.823a2.26 2.26 0 0 1 .321-.305l-.823.636c.085-.06.174-.112.269-.155l-.972.41c.152-.06.289-.1.45-.131l-1.082.145a2.53 2.53 0 0 1 .627.01l-1.082-.145c.16.033.306.074.46.13l-.972-.41c.199.087.377.187.555.313l-.823-.636c.165.135.305.277.436.446l-.636-.823c.059.083.111.171.155.263l-.41-.971c.062.147.103.279.135.436l-.145-1.081a2.08 2.08 0 0 1-.002.46l.145-1.081a2.317 2.317 0 0 1-.135.431l.41-.971a2.68 2.68 0 0 1-.247.385l.636-.823c-.107.12-.213.222-.336.325l.823-.636c-.175.126-.35.227-.548.315l.972-.41a3.154 3.154 0 0 1-.456.129l1.082-.145a2.467 2.467 0 0 1-.625.003l1.082.145a1.69 1.69 0 0 1-.305-.08l.972.41-.148-.062c-1.052-.445-1.982-.727-3.135-.41-.944.26-1.966.989-2.431 1.868-.499.943-.749 2.086-.41 3.132.304.929.925 2.026 1.872 2.427z" fill="#BFCAE4" data-color="4"></path>
        <path fill="#BFCAE4" d="M40.68 100.85c3.12.368 5.362 3.099 5.007 6.098s-3.171 5.13-6.292 4.761-5.362-3.1-5.007-6.098 3.172-5.131 6.292-4.762z" data-color="4"></path>
        <path d="M40.1 112.333a6.43 6.43 0 0 1-.793-.049c-3.432-.415-5.898-3.447-5.497-6.757.402-3.308 3.529-5.663 6.952-5.251 3.433.415 5.9 3.447 5.498 6.758-.194 1.607-1.028 3.039-2.346 4.032a6.328 6.328 0 0 1-3.814 1.267zm-.12-10.944c-2.533 0-4.717 1.809-5.016 4.278-.324 2.674 1.687 5.125 4.484 5.464a5.193 5.193 0 0 0 3.767-.994c1.064-.801 1.736-1.953 1.892-3.245.324-2.674-1.687-5.126-4.484-5.465a5.599 5.599 0 0 0-.643-.038z" fill="#BFCAE4" data-color="4"></path>
        <path fill="#BFCAE4" d="M59.936 103.3c3.035.358 5.216 3.014 4.87 5.931s-3.085 4.991-6.12 4.632-5.216-3.014-4.87-5.932 3.085-4.991 6.12-4.632z" data-color="4"></path>
        <path d="M52.942 107.917c-.511 7.885 11.728 9.352 12.716 1.445.99-7.917-11.299-9.445-12.685-1.677-.196 1.096 1.484 1.567 1.681.463 1.017-5.697 9.928-4.856 9.259.978-.67 5.841-9.601 4.562-9.228-1.21.073-1.118-1.671-1.114-1.743.001z" fill="#BFCAE4" data-color="4"></path>
        <path d="M144.202 88.437c.663-1.046-.097-2.649-1.319-2.853-1.222-.205-2.447.986-2.333 2.219.114 1.233 1.464 2.174 2.676 1.916 1.212-.259 2.055-1.601 1.823-2.817" fill="#FFCFAE" data-color="5"></path>
        <path d="M147.715 90.489c1.817-3.369.169-7.628-3.54-8.774-3.871-1.196-7.601 2.173-7.696 5.966-.099 3.925 3.958 6.703 7.6 5.993 1.675-.327 3.019-1.391 3.98-2.763 1.088-1.554 1.158-3.281.913-5.089-.126-.932-1.101-1.98-1.87-2.429-.872-.51-2.157-.726-3.135-.41-.984.318-1.934.928-2.431 1.868-.548 1.037-.566 1.983-.41 3.132l-.107-.621c.12-.657.14-.827.061-.512-.163.481.386-.78.145-.332-.225.417.635-.665.132-.196.3-.28.62-.461 1.011-.583-.539.169.529-.004.714.001.348.063.416.067.203.011-.299-.091-.152-.029.441.185.145.086.626.609.28.21l.355.462c.21.603.27.754.181.452-.055-.209-.048-.145.021.194.062.2.069.401.023.605-.048.476-.218.918-.578 1.258-.137.129-.716.425-.243.188-.466.234-.909.355-1.437.286a2.317 2.317 0 0 1-1.141-.453c-.185-.137-.783-1.036-.496-.487a2.626 2.626 0 0 1-.314-1.23c-.003.323.011.283.043-.12.009-.326.099-.63.272-.914-1.009 1.871-.529 4.512 1.46 5.561 1.89.998 4.485.54 5.563-1.459z" fill="#FFCFAE" data-color="5"></path>
        <path d="M120.108 88.537c1.855-.01 2.858-.667 3.156-1.471s-.208-1.731-.939-2.179-1.626-.526-2.483-.554c-.8-.026-.469-.042-1.195.295s-1.321 1.081-1.241 1.877c.102 1.017 1.196 1.979 2.216 1.896" fill="#FFCFAE" data-color="5"></path>
        <path d="M120.108 92.602c3.105-.102 6.171-1.41 7.117-4.608.569-1.923-.153-4.156-1.526-5.564-1.338-1.373-3.079-1.904-4.934-2.095-3.117-.321-6.198 1.316-7.198 4.429-1.252 3.898 2.258 7.635 6.055 7.703 2.129.038 4.166-1.897 4.069-4.065-.1-2.235-1.787-4.024-4.069-4.065.8.014 1.617.536 1.766 1.391l-.243 1.863c-.882.726-1.03.908-.445.548 1.257-.572-.81.354-1.174.249.118.034 1.34.153.879.038-.295-.038-.237-.011.176.08a1.426 1.426 0 0 1-.636-.328c-.941-.942-.757-2.523.121-3.459-.294.284-.205.219.267-.193l.464-.179c-.203.071-.41.126-.621.166.482-.062.459-.075-.068-.041-2.125.07-4.169 1.819-4.069 4.065.097 2.142 1.791 4.14 4.069 4.065z" fill="#FFCFAE" data-color="5"></path>
        <path d="M132.572 88.304c.31.733 1.177.453 1.371-.348.194-.801-.155-1.732-.651-2.187-.497-.454-1.1-.539-1.678-.574-.54-.033-.316-.046-.803.285-.487.331-.881 1.07-.821 1.866.077 1.018.861 1.666 1.548 1.592" fill="#FFCFAE" data-color="5"></path>
        <path d="M129.059 90.355c.994 1.825 3.293 2.892 5.324 2.269 1.762-.54 3.145-2 3.523-3.81.685-3.272-1.342-6.906-4.775-7.499-.593-.102-1.221-.201-1.828-.201-1.303-.002-2.141.531-3.092 1.284l.546-.429c-.303.229-.604.462-.903.698-.323.314-.597.672-.864 1.037a5.467 5.467 0 0 0-.901 2.041c-.728 3.465 1.614 7.364 5.448 7.256 2.125-.06 4.169-1.826 4.069-4.065-.096-2.151-1.79-4.129-4.069-4.065-.702.005-.23.148 1.415.429-.343-.207-.212-.104.393.309.32.305.536.671.65 1.097.053.727.073.852.059.375.015.397-.083.764-.293 1.101.229-.368.152-.269-.232.295-.77.602-.66.519.328-.247-.692.459-.885.614-.579.467l-2.053.555c.212-.027 1.002.073.285-.02-.713-.093.203.227-.384-.11a1.046 1.046 0 0 1-.493-.3c-.258-.227-.286-.242-.085-.044-.241-.274-.611-.679-.629-1.071.002.051.16.403.118.432l-.106-.63a1.887 1.887 0 0 1 .222-.942c.158-.511.524-.859 1.1-1.045 1.363-1.469 2.974-1.226 4.834.73-1.018-1.87-3.759-2.623-5.567-1.458-1.9 1.223-2.55 3.561-1.461 5.561z" fill="#FFCFAE" data-color="5"></path>
        <path d="M87.979 84.796c.377.731 1.443.446 1.687-.357.244-.802-.18-1.732-.788-2.183s-1.349-.533-2.06-.564c-.663-.029-.389-.044-.989.29-.6.334-1.089 1.075-1.02 1.871.089 1.018 1.049 1.661 1.894 1.583" fill="#FFCFAE" data-color="5"></path>
        <path d="M84.466 86.848c1.258 1.849 3.159 2.749 5.394 2.282 1.769-.37 3.244-1.906 3.729-3.609.995-3.493-1.567-7.143-5.076-7.701-1.59-.253-3.056-.337-4.501.513-1.427.84-2.576 2.103-3.035 3.722-1.059 3.732 1.839 7.509 5.727 7.446 2.127-.035 4.168-1.845 4.069-4.065-.097-2.173-1.789-4.102-4.069-4.065-.701-.01-.323.114 1.134.371l.418.36c.527.578.763 1.491.523 2.25-.063.199-.567 1.201-.896 1.139.104-.058.206-.119.306-.185.569-.358.025-.212-1.632.438.235.055 1.132.18.098-.04.689.147-.265-.206-.458-.407-2.203-2.284 2.49-6.677 5.295-2.553-1.194-1.755-3.633-2.704-5.567-1.458-1.748 1.127-2.738 3.681-1.459 5.562z" fill="#FFCFAE" data-color="5"></path>
        <path d="M109.147 86.556c1.554-.188 1.925-.954 1.839-1.841-.086-.887-.947-1.548-1.83-1.675-.767-.11-1.611.133-2.094.739-.483.605-.495 1.582.07 2.112s.709.402 1.977.818" fill="#FFCFAE" data-color="5"></path>
        <path d="M110.229 90.475c2.777-.41 4.873-2.802 4.836-5.614-.044-3.396-3.15-6.063-6.491-5.9-3.768.184-6.644 3.509-5.757 7.294.336 1.434 1.411 2.74 2.679 3.466.794.455 1.673.633 2.532.906 2.029.646 4.53-.757 5.005-2.839.506-2.219-.67-4.309-2.842-5a28.233 28.233 0 0 0-1.066-.311c-.098-.027-.196-.074-.295-.094.58.114.891.341 1.295.736-.389-.38.338.538.404.682.241.522.289 1.058.169 1.618-.118.55-.578 1.142-1.062 1.42l-.552.219c.326-.08.298-.088-.085-.021-.349.033-.413.047-.192.042.328.006.157-.02-.513-.079l.216.064a1.458 1.458 0 0 1-.789-.411c-.28-.241-.304-.253-.069-.035l-.377-.472a1.787 1.787 0 0 1-.298-.928c-.04-.407-.056-.479-.048-.215l.116-.803c-.069.258-.028.182.124-.227.188-.394.217-.474.085-.242l.452-.605c.618-.433.785-.568.5-.405-.272.148-.092.072.542-.228-.166-.032-.516.116-.682.14-.938.138-1.976 1.09-2.431 1.868-.51.871-.727 2.155-.41 3.132.319.984.929 1.932 1.87 2.429 1.031.548 1.989.582 3.134.413z" fill="#FFCFAE" data-color="5"></path>
        <path d="M96.974 85.087c.333.794 3.255.576 3.69-.167.435-.743.034-1.775-.704-2.218-.738-.443-1.69-.389-2.494-.082-.551.21-1.097.577-1.266 1.141-.169.564.254 1.296.841 1.238" fill="#FFCFAE" data-color="5"></path>
        <path d="M93.461 87.139c1.431 2.513 4.597 2.805 7.149 2.264 3.57-.758 5.406-4.766 3.562-7.971-1.88-3.269-6.216-3.934-9.33-2.032-1.855 1.133-2.953 3.175-2.661 5.341.341 2.535 2.375 4.164 4.859 4.323 2.128.136 4.163-1.967 4.069-4.065-.104-2.318-1.789-3.919-4.069-4.065l3.082 3.907-.651 1.174c-.121.139-.658.492-.188.214-.226.134-.705.263-.183.146-.248.055-.756.056-.221.074-.73-.025-1.401-.383-1.786-1.021-.781-1.296.139-3.203 1.216-3.749-.265.134.909-.237.558-.229-.094.002-.242.064-.333.092-.745.232.957-.016.151-.024-.221-.002-1.098-.073-.271.032.849.108-.223-.186.578.167.368.176.468.218.301.125-.558-.322-.16.076 1.195 1.193-1.053-1.849-3.734-2.638-5.567-1.458-1.87 1.205-2.587 3.583-1.46 5.562z" fill="#FFCFAE" data-color="5"></path>
        <path d="M75.261 83.322c.914.387 2.081.031 2.624-.799-.876-1.161-2.952-1.047-3.694.204l1.296.446" fill="#FFCFAE" data-color="5"></path>
        <path d="M74.18 87.242c1.131.411 2.566.396 3.709.026 1.531-.496 2.574-1.412 3.51-2.693.52-.711.594-1.765.483-2.592-.127-.942-.507-1.598-1.119-2.334-1.128-1.358-3.123-2.081-4.86-1.987-2.205.119-4.015 1.18-5.224 3.013-.707 1.072-.685 2.48-.205 3.618.509 1.205 1.408 1.931 2.637 2.353l1.296.446c2.015.693 4.538-.791 5.005-2.839.515-2.261-.685-4.258-2.842-5l-1.296-.446 2.431 5.971c-.023.035-.691.778-.316.422-.796.757-.664.457-.338.295.405-.201-.93.35-.492.227.363-.103-1.141.035-.483.06.556.021-.559-.08-.565-.104.002.008.336.078.332.086l-.659-.276c.244.15.201.106-.13-.13-.566-.44-.164-.104-.045.039l-.636-4.926.388-.516c.557-.389.703-.5.437-.332-.344.169 1.022-.236.338-.137.081-.012 1.044-.047.494-.073 1.082.051.728.14.313-.011-2.003-.728-4.544.816-5.005 2.839-.523 2.292.697 4.222 2.842 5.001z" fill="#FFCFAE" data-color="5"></path>
        <path d="M141.708 103.154c.687-1.031-.036-2.65-1.254-2.883-1.217-.232-2.469.931-2.383 2.166.086 1.235 1.414 2.207 2.632 1.976 1.218-.231 2.091-1.554 1.887-2.775" fill="#FFCFAE" data-color="5"></path>
        <path d="M145.221 105.206c1.881-3.306.23-7.418-3.278-8.717-3.637-1.347-7.386 1.58-7.867 5.163-.487 3.622 2.696 6.876 6.283 6.857 3.489-.018 6.686-3.321 6.299-6.871-.121-1.109-.373-2.057-1.192-2.874-.706-.705-1.863-1.236-2.877-1.191-2.007.09-4.315 1.801-4.069 4.065.027.244-.123.782.059.193a.893.893 0 0 1 .152-.552c.141-.289.161-.338.06-.146-.251.406.635-.618.11-.145.277-.25.589-.465.958-.555.653-.043.819-.061.499-.054-.22-.002-.154.011.199.039a.988.988 0 0 1 .584.162c.337.163.359.168.067.014.127.089.653.589.289.197.356.384.572.801.613 1.33.048.207.039.411-.027.612-.071.335-.079.395-.024.179.061-.207.038-.158-.067.148a1.45 1.45 0 0 1-.431.703c-.126.124-.703.46-.233.201-.455.25-.909.372-1.433.312a2.322 2.322 0 0 1-1.149-.435c-.182-.13-.813-1.02-.511-.475a2.629 2.629 0 0 1-.333-1.225c-.008.324.003.283.033-.121.004-.326.09-.632.259-.919-1.052 1.849-.499 4.528 1.46 5.561 1.931 1.021 4.444.518 5.567-1.456z" fill="#213472" data-color="1"></path>
        <path d="M117.618 102.709c1.855.032 2.872-.602 3.189-1.399.316-.797-.169-1.735-.89-2.2s-1.613-.563-2.47-.61c-.8-.044-.468-.053-1.201.268-.734.321-1.345 1.051-1.283 1.848.079 1.019 1.151 2.006 2.173 1.946" fill="#FFCFAE" data-color="5"></path>
        <path d="M117.618 106.774c3.106-.032 6.195-1.35 7.153-4.535.597-1.983-.168-4.081-1.489-5.575-1.16-1.311-2.881-1.87-4.556-2.095-1.521-.204-2.748-.142-4.16.512-1.609.746-2.873 2.102-3.428 3.796-1.286 3.929 2.207 7.597 5.997 7.75 2.129.086 4.164-1.931 4.069-4.065-.102-2.276-1.788-3.973-4.069-4.065.798.032 1.638.519 1.803 1.342l-.214 1.867c-.873.731-1.014.922-.425.571.402-.181.384-.18-.054.002-.349.167-.72.256-1.114.267.228.012.456.026.684.042-.405-.071-.46-.077-.165-.018.18.033.357.08.53.142-.482-.089-.847-.376-1.095-.862-.522-.88-.22-2.213.511-2.897.548-.374.634-.442.257-.205l.459-.191c-.43.101-.396.119.102.054a6.843 6.843 0 0 1-.797.031c-2.127.022-4.168 1.854-4.069 4.065.1 2.186 1.79 4.091 4.07 4.067z" fill="#213472" data-color="1"></path>
        <path d="M130.084 102.758c.294.74 1.166.479 1.378-.317.212-.797-.115-1.735-.602-2.201s-1.088-.564-1.665-.612c-.539-.045-.315-.053-.809.267-.494.32-.905 1.049-.863 1.847.054 1.019.823 1.685 1.512 1.626" fill="#FFCFAE" data-color="5"></path>
        <path d="M126.571 104.809c.991 1.921 3.268 2.774 5.314 2.285 1.754-.419 3.185-2.066 3.545-3.794.67-3.22-1.215-6.851-4.609-7.521-1.47-.291-2.986-.395-4.294.471-1.403.928-2.515 2.21-2.892 3.892-.786 3.51 1.593 7.311 5.4 7.29 2.128-.012 4.167-1.861 4.069-4.065-.098-2.192-1.788-4.078-4.069-4.065.509.015.982.153 1.418.414.564.488.697.588.401.299.324.301.545.664.665 1.089.056.725.081.85.075.374-.032.931-.426 1.399-1.154 1.926 1.113-.805-2.048.271-1.35.279.323.03.143.001-.54-.086.146.023.29.056.431.099a2.098 2.098 0 0 1-.997-.583c-.414-.592-.507-.708-.281-.349-.244-.65-.302-.771-.173-.361-.062-.711-.086-.848-.071-.409.008-.743.296-1.39.863-1.94 1.627-1.406 3.386-1.189 5.275.65-.976-1.894-3.788-2.604-5.567-1.458-1.932 1.247-2.503 3.538-1.459 5.563z" fill="#213472" data-color="1"></path>
        <path d="M85.582 98.243c.36.739 1.433.478 1.695-.318.262-.797-.141-1.735-.738-2.2-.597-.465-1.337-.563-2.046-.611-.662-.044-.388-.053-.995.267-.608.32-1.113 1.05-1.062 1.848.066 1.019 1.011 1.685 1.857 1.625" fill="#FFCFAE" data-color="5"></path>
        <path d="M82.069 100.294c2.418 3.732 7.757 2.849 9.131-1.289 1.147-3.456-1.61-7.167-5.014-7.751-1.604-.275-3.034-.343-4.503.482-1.45.815-2.58 2.088-3.064 3.695-1.134 3.767 1.826 7.462 5.674 7.486 2.129.013 4.166-1.879 4.069-4.065-.099-2.214-1.787-4.05-4.069-4.065 1.449.009 2.528 1.552 2.125 2.94-.044.15-.567 1.27-.867 1.162a4.14 4.14 0 0 0 .31-.178c.577-.346.033-.197-1.63.448.22.06 1.164.152.095-.013l.298.076a1.673 1.673 0 0 1-.771-.453c-2.345-2.308 2.666-6.555 5.242-2.579-1.155-1.783-3.662-2.685-5.567-1.458-1.782 1.149-2.695 3.653-1.459 5.562z" fill="#213472" data-color="1"></path>
        <path d="M106.705 100.48c1.558-.153 1.946-.911 1.881-1.799s-.912-1.569-1.792-1.716c-.764-.128-1.614.097-2.11.691-.496.594-.53 1.57.022 2.113s.7.418 1.958.862" fill="#FFCFAE" data-color="5"></path>
        <path d="M106.705 104.545c1.616-.201 3.108-.524 4.324-1.711 1.037-1.012 1.605-2.42 1.629-3.862.057-3.442-2.894-6.01-6.213-6.102-3.683-.102-6.598 3.094-6.111 6.716.228 1.699 1.246 3.085 2.68 3.994.769.488 1.714.679 2.568.972 2.015.692 4.538-.79 5.005-2.839.515-2.26-.684-4.26-2.842-5-.349-.12-.701-.241-1.058-.335-.596-.157.553.253.578.265-.336-.154-.458-.506.43.36-.555-.54.595 1.02.644 1.499.029.407.041.449.035.126l-.067.665c-.11.552-.56 1.152-1.039 1.439l-.548.229c.328-.076.3-.08-.083-.011-.348.034-.412.051-.192.05.334.013.157-.011-.531-.071.652.128-.714-.343-.305-.12.265.168.126.062-.417-.318l-.38-.509c.149.271.136.23-.039-.123a1.87 1.87 0 0 1-.249-1.03c.025.591.211-1.029.09-.593.051-.182.46-.922.763-1.252-.192.185-.13.144.183-.123.261-.251.573-.412.936-.485-.264.022-1.037.196.208.041-1.119.139-2.047.361-2.877 1.191-.706.705-1.237 1.862-1.192 2.874.047 1.051.393 2.142 1.192 2.874.739.675 1.835 1.319 2.878 1.189z" fill="#213472" data-color="1"></path>
        <path d="M94.568 98.737c.315.801 3.241.649 3.693-.083.452-.732.074-1.774-.654-2.233-.728-.459-1.68-.427-2.492-.139-.555.197-1.11.552-1.292 1.112-.181.56.225 1.301.812 1.257" fill="#FFCFAE" data-color="5"></path>
        <path d="M91.055 100.788c1.349 2.498 4.638 2.865 7.14 2.321 1.436-.312 2.703-1.083 3.516-2.322 1.099-1.674 1.002-3.897.091-5.622-1.77-3.349-6.24-3.92-9.316-2.117-1.867 1.095-2.98 3.17-2.691 5.325.344 2.555 2.34 4.126 4.841 4.342 2.126.184 4.161-2.001 4.069-4.065-.106-2.36-1.791-3.868-4.069-4.065l-.211-.018 2.053.555.976 1.075-.018 3.021c-.144.29-.457.616-.735.782-.358.214-.691.309-.088.082.522-.197-.762.134-.221.057.231.009.191.004-.119-.015a.883.883 0 0 1-.491-.107 2.034 2.034 0 0 1-.874-.638c-1.04-1.257-.291-3.249 1.052-4.006-.426.24.58-.268.574-.23-.005.027-.294.084-.326.091-.559.108.537-.057.536-.056-.019.035-.335.025-.381.027-.126.004-.253-.007-.378 0-.677.038.811.157.468.075-.191-.046-.543-.191.125.097.595.256 1.19.728 1.503 1.308-1.012-1.874-3.763-2.62-5.567-1.458-1.903 1.226-2.541 3.557-1.459 5.561z" fill="#213472" data-color="1"></path>
        <path d="M72.901 96.481c.905.407 2.08.079 2.642-.739-.849-1.181-2.927-1.113-3.698.12l1.286.475" fill="#FFCFAE" data-color="5"></path>
        <path d="M71.819 100.401c1.125.438 2.561.408 3.708.061 1.551-.47 2.566-1.412 3.529-2.668.531-.693.592-1.782.483-2.592-.129-.956-.518-1.576-1.119-2.334-1.099-1.385-3.115-2.092-4.842-2.031-2.217.077-4.003 1.178-5.246 2.974-.726 1.048-.677 2.5-.205 3.618.517 1.224 1.409 1.9 2.637 2.353l1.286.475c2 .739 4.545-.824 5.005-2.839.525-2.301-.701-4.209-2.842-5l-1.286-.475 2.431 5.971c-.02.029-.678.796-.307.429-.593.422-.754.551-.481.387.178-.1.092-.069-.256.093-.672.277-.247.094-.082.064.413-.075-1.178.075-.482.073.556-.001-.559-.048-.566-.092.001.004.333.089.33.094l-.662-.269c.242.154.197.112-.134-.124-.558-.424-.176-.107-.053.048l-.636-4.926.381-.522c.555-.39.699-.504.43-.341-.346.181 1.019-.27.332-.151.076-.013 1.047-.072.493-.086 1.031.026.75.14.317-.028-.925-.36-2.313-.071-3.135.41-.844.493-1.649 1.46-1.87 2.429-.531 2.331.714 4.17 2.842 4.999z" fill="#213472" data-color="1"></path>
    </g>
</svg>