<svg preserveAspectRatio="xMidYMid meet" data-bbox="20 31.001 160 138" viewBox="20 31.001 160 138" height="200"
    width="200" xmlns="http://www.w3.org/2000/svg" data-type="color" role="img"
    aria-labelledby="comp-k03gpw5k-svgtitle">
    <title id="comp-k03gpw5k-svgtitle">Piłka do zabawy</title>
    <g>
        <path
            d="M173.209 79.279c-5.403-24.234-28.811-43.923-52.23-47.551a56.035 56.035 0 0 0-2.75-.356c-19.385-2.015-38.65 6.342-50.417 22.02-19.049 25.38-25.121 62.752 4.059 85.906 22.313 17.705 55.251 21.992 77.208 3.283 31.372-26.731 24.13-63.302 24.13-63.302z"
            fill="#F97338" data-color="1"></path>
        <path
            d="M92.081 35.003s-13.952 26.244-.294 66.494c12.178 35.89 31.494 51.667 34.571 52.106.618.088-12.318 2.604-23.974-.088-16.049-3.707-34.858-9.016-46.624-33.306-20.571-42.465 13.486-71.423 21.247-77.14 7.833-5.772 13.366-7.419 15.074-8.066z"
            fill="#4692D8" data-color="2"></path>
        <path
            d="M135.114 150.984c1.155-.693 25.503-26.913 16.323-67.108-8.303-36.354-40.459-52.227-49.26-51.786-.503.025 7.977-1.706 15.747-.853 16.799 1.845 41.957 9.675 53.329 41.604 15.831 44.448-18.272 67.633-26.28 72.999-6.798 4.556-9.859 5.144-9.859 5.144z"
            fill="#FFCFAE" data-color="3"></path>
        <path
            d="M49.003 44.19C35.871 57.014 30.061 75.627 33.421 93.646c.326 1.747 2.993 1.007 2.668-.735-3.177-17.037 2.484-34.67 14.87-46.766 1.276-1.246-.681-3.201-1.956-1.955z"
            fill="#213472" data-color="4"></path>
        <path
            d="M27.895 49.457c-3.94 2.401-6.729 6.151-7.848 10.631-.431 1.727 2.236 2.464 2.668.735.948-3.796 3.229-6.939 6.576-8.978 1.518-.925.13-3.318-1.396-2.388z"
            fill="#213472" data-color="4"></path>
        <path
            d="M177.472 143.057c-5.745 12.576-17.536 21.45-31.313 23.165-1.744.217-1.765 2.985 0 2.766 14.714-1.831 27.522-11.005 33.702-24.535.734-1.608-1.649-3.015-2.389-1.396z"
            fill="#213472" data-color="4"></path>
    </g>
</svg>