<svg preserveAspectRatio="xMidYMid meet" data-bbox="20 39 160.001 122.001" viewBox="20 39 160.001 122.001" height="200" width="200" xmlns="http://www.w3.org/2000/svg" data-type="color" role="img" aria-labelledby="comp-k03gpw5n-svgtitle"><title id="comp-k03gpw5n-svgtitle">Bicycle Icon</title>
    <g>
        <path d="M64.03 42.798c-.167 5.825 1.293 11.141 1.126 16.967-.039 1.365 1.868.34 1.901-.809.167-5.825-1.293-11.141-1.126-16.967.039-1.366-1.868-.34-1.901.809z" fill="#F97338" data-color="1"></path>
        <path d="M64.955 42.311c1.661 3.869 2.89 7.927 4.427 11.852.23.586 2.257 1.835 1.808.69-1.599-4.083-3.167-8.754-4.895-12.78-.308-.718-1.949-1.179-1.34.238z" fill="#F97338" data-color="1"></path>
        <path d="M63.359 44.242c-1.732 3.866-2.273 7.514-3.784 11.597-.209.565.196.465.568.3.525-.233.941-1.105 1.11-1.563 1.447-3.911 2.519-7.586 4.357-11.42.201-.419-.248-1.404-.746-1.332-.487.07-.642.651-.994 1.134l-.511 1.284z" fill="#F97338" data-color="1"></path>
        <path d="M48.519 72.989c36.065 22.454 71.261 46.281 107.326 68.735 3.72 2.316 8.158-5.303 4.402-7.641-36.065-22.454-71.261-46.281-107.326-68.735-3.72-2.317-8.158 5.303-4.402 7.641z" fill="#BFCAE4" data-color="2"></path>
        <path d="M45.603 67.891l-3.641 64.129c-.327 5.754 6.884 3.415 7.144-1.159l3.641-64.129c.326-5.754-6.885-3.415-7.144 1.159z" fill="#BFCAE4" data-color="2"></path>
        <path d="M179.929 136.47c-.417-9.746-7.228-18.531-17.029-20.588-10.158-2.132-20.33 4.927-24.761 13.763-10.571 21.081 19.17 40.443 35.339 24.606 4.933-4.832 7.173-12.139 6.36-18.955-.225-1.888-1.995-3.794-3.996-3.17-2.177.678-2.657 3.459-2.429 5.372.007.061.009-.929-.018.219-.019.79-.035 1.569-.155 2.35a12.726 12.726 0 0 1-4.078 7.573c-6.683 5.992-17.012 4.227-23.129-1.665-7.752-7.468-.42-17.636 7.898-20.688 7.6-2.788 19.004 2.019 19.39 11.036.231 5.427 6.845 5.684 6.608.147z" fill="#213472" data-color="3"></path>
        <path d="M69.54 134.62c-.42-10.876-8.236-20.719-19.135-22.983-11.603-2.41-23.282 5.76-28.138 15.966-11.33 23.814 22.593 44.513 40.311 26.678 5.311-5.346 7.77-13.382 6.87-20.835-.228-1.887-1.993-3.795-3.996-3.17-2.175.678-2.66 3.46-2.429 5.372-.065-.542.041-.553-.006.502-.041.902-.048 1.791-.184 2.685-.512 3.363-2.071 6.504-4.552 8.85-7.992 7.557-20.79 5.299-28.01-2.159-8.73-9.018.499-21.216 10.218-24.501 9.068-3.066 22.036 2.916 22.443 13.449.209 5.431 6.822 5.682 6.608.146z" fill="#213472" data-color="3"></path>
        <path d="M44.956 133.721c-5.684-2.986-10.813-6.895-16.497-9.881-1.505-.791-2.843 1.492-1.335 2.285 5.684 2.986 10.813 6.895 16.497 9.881 1.505.791 2.843-1.492 1.335-2.285z" fill="#213472" data-color="3"></path>
        <path d="M47.249 135.123l12.612-14.078c1.133-1.265-.731-3.142-1.87-1.871l-12.612 14.078c-1.133 1.265.731 3.143 1.87 1.871z" fill="#213472" data-color="3"></path>
        <path d="M46.294 135.826a136.452 136.452 0 0 1 17.882 5.754c1.58.631 2.267-1.927.703-2.552a136.602 136.602 0 0 0-17.882-5.754c-1.652-.408-2.357 2.143-.703 2.552z" fill="#213472" data-color="3"></path>
        <path d="M45.003 135.81c.666 7.338.737 14.657.215 22.006-.076 1.074 1.161 1.551 1.989 1.142l1.557-.767c1.527-.752.188-3.035-1.335-2.285l-1.557.767 1.989 1.142a136.22 136.22 0 0 0-.215-22.006c-.152-1.681-2.797-1.697-2.643.001z" fill="#213472" data-color="3"></path>
        <path d="M45.626 134.607c-6.928 1.411-13.134 4.494-18.508 9.08-1.297 1.107.581 2.971 1.87 1.871 5.04-4.3 10.858-7.08 17.341-8.4 1.666-.339.961-2.89-.703-2.551z" fill="#213472" data-color="3"></path>
        <path d="M160.538 137.911c-3.081-5.066-6.691-10.04-10.875-14.254-1.201-1.21-3.071.661-1.87 1.871 4.037 4.066 7.488 8.83 10.461 13.719.884 1.453 3.172.124 2.284-1.336z" fill="#213472" data-color="3"></path>
        <path d="M159.732 138.717a85.276 85.276 0 0 0 12.137-10.291c1.19-1.219-.678-3.092-1.87-1.871a81.587 81.587 0 0 1-11.602 9.877c-1.384.969-.064 3.264 1.335 2.285z" fill="#213472" data-color="3"></path>
        <path d="M158.514 139.472l9.273 11.294c1.081 1.317 2.942-.565 1.87-1.871l-9.273-11.294c-1.082-1.317-2.943.565-1.87 1.871z" fill="#213472" data-color="3"></path>
        <path d="M158.496 139.025c-3.799 4.239-7.998 8.037-12.625 11.353l1.602 2.078 1.029-.801c1.342-1.044-.542-2.905-1.87-1.871l-1.029.801c-1.174.914.381 2.953 1.602 2.078 4.81-3.447 9.209-7.358 13.16-11.767 1.134-1.264-.73-3.142-1.869-1.871z" fill="#213472" data-color="3"></path>
        <path d="M158.047 137.71l-17.215.055c-1.701.005-1.704 2.652 0 2.646l17.215-.055c1.701-.005 1.704-2.651 0-2.646z" fill="#213472" data-color="3"></path>
        <path d="M62.767 39.15c-6.74 1.789-13.058 4.79-17.394 10.428-3.946 5.131-5.502 12.955-.159 17.723 5.395 4.815 14.923 4.4 21.61 3.815 8.505-.743 16.687-3.25 24.22-7.246 4.84-2.568-1.713-7.545-5.468-5.553-8.988 4.768-21.585 8.491-31.802 5.783-5.944-1.576-2.599-8.861.166-11.939 3.284-3.657 7.731-5.466 12.377-6.699 5.569-1.48.849-7.48-3.55-6.312z" fill="#FFCFAE" data-color="4"></path>
        <path d="M122.361 82.577c-4.112 8.797-7.454 17.935-12.655 26.183-3.075 4.876 4.462 6.063 6.891 2.211 5.565-8.825 9.147-18.631 13.547-28.044.902-1.929-.772-3.719-2.633-3.865-2.329-.181-4.239 1.564-5.15 3.515z" fill="#BFCAE4" data-color="2"></path>
        <path d="M107.569 75.008c3.551-.735 23.956-7.398 37.987-4.528 1.67.342 3.298.866 4.793 1.684 2.872 1.571 3.177 6.995 2.98 8.687-.322 2.764-3.527 4.075-6.248 4.671-14.295 3.131-31.399 1.88-40.513-2.765-1.71-.872-3.274-1.717-4.108-3.518-.364-.789.311-3.238 5.109-4.231z" fill="#213472" data-color="3"></path>
        <path d="M87.618 61.867c-.364 6.68.975 13.095.611 19.775-.085 1.565 1.925.76 1.997-.557.365-6.68-.975-13.095-.611-19.775.086-1.565-1.925-.76-1.997.557z" fill="#F97338" data-color="1"></path>
        <path d="M88.359 61.453c1.661 3.869 2.89 7.927 4.427 11.852.23.586 2.257 1.835 1.808.69-1.599-4.083-3.166-8.754-4.895-12.78-.308-.717-1.948-1.179-1.34.238z" fill="#F97338" data-color="1"></path>
        <path d="M86.763 63.384c-1.732 3.866-2.273 7.514-3.784 11.597-.209.565.196.465.568.3.525-.233.941-1.105 1.11-1.563 1.447-3.911 2.519-7.586 4.357-11.42.201-.419-.248-1.404-.746-1.332-.487.07-.642.651-.994 1.134l-.511 1.284z" fill="#F97338" data-color="1"></path>
        <path d="M86.676 65.495c-.862 4.777-.452 9.055-1.006 14.033-.077.689.35.49.72.224.523-.376.746-1.458.808-2.016.531-4.768.707-9.189 1.697-13.95.108-.52-.67-1.551-1.207-1.365-.526.182-.538.878-.798 1.502l-.214 1.572z" fill="#F97338" data-color="1"></path>
    </g>
</svg>