<svg preserveAspectRatio="xMidYMid meet" data-bbox="20.001 44.999 159.999 110.001"
    viewBox="20.001 44.999 159.999 110.001" height="200" width="200" xmlns="http://www.w3.org/2000/svg"
    data-type="color" role="img" aria-labelledby="comp-k02hwevb-svgtitle">
    <title id="comp-k02hwevb-svgtitle">Bird Icon</title>
    <g>
        <path
            d="M85.932 151.4c.422-.494.824-1.004 1.207-1.529.179-.236.618-.301 1.144-.256 1.723-1.158 3.494-2.274 4.455-4.145 1.417-2.76 1.164-6.072 2.663-8.832.622-1.146 4.794.408 4.38 1.171-1.614 2.972-1.259 6.662-3.048 9.532-.105.169-.232.317-.35.474.131.141.21.295.214.461.027 1.094.883 2.242 1.399 3.161.56.996.971 2.062 1.503 3.058.379.711-1.534.477-1.757.438-.83-.145-2.066-.438-2.565-1.201a11.244 11.244 0 0 1-.332-.532.288.288 0 0 1-.029-.202c-.426-.87-.828-1.755-1.303-2.608-1.189.815-2.436 1.572-3.464 2.538-.797.748-4.888-.589-4.117-1.528z"
            fill="#FFCFAE" data-color="1"></path>
        <path
            d="M106.005 151.453c1.648-.482 2.787-3.134 2.833-4.647.011-.369.144-.653.345-.875-.451-2.846-1.657-5.562-1.521-8.501.102-2.187 4.508-1.43 4.424.384-.141 3.034 1.149 5.831 1.56 8.779.424.182.814.422 1.081.766 1.455 1.881 3.524 3.24 4.253 5.624.257.84-3.98.337-4.319-.773-.307-1.005-.866-1.83-1.512-2.595a1.81 1.81 0 0 1-.379.169c-.718 2.083-2.178 4.009-4.236 4.611-1.045.306-2.381.044-3.097-.828-.615-.749-.444-1.817.568-2.114z"
            fill="#FFCFAE" data-color="1"></path>
        <path
            d="M72.515 65.175c3.527-1.869 28.718-15.075 48.367-19.598 10.562-2.431 27.206 3.015 36.847 12.531 7.606 7.507 12.908 12.02 13.457 21.653.625 10.97.017 19.139-4.833 29.228-4.678 9.733-13.229 17.001-22.804 21.723-13.737 6.774-29.559 8.398-44.614 9.518-12.283.914-20.118-4.151-30.954-10.231-13.047-7.32-23-12.848-30.229-25.628-3.128-5.529-8.671-11.268-12.092-18.09-6.046-12.06-7.557-13.568-3.023-12.06 5.978 1.987 12.974 4.201 18.921 6.265 2.816.977-3.14 2.762 30.957-15.311z"
            fill="#BFCAE4" data-color="2"></path>
        <path
            d="M158.921 59.078c-.026-.14.054-.264.303-.352 5.933-2.107 10.824-6.267 16.772-8.349.664-.232 4.38.31 3.973 1.493-1.315 3.817-4.549 6.485-5.932 10.253-.809 2.203-1.3 6.256-3.49 7.598-.999.612-3.33.021-4.054-.879l-7.485-9.31c-.158-.196-.167-.343-.087-.454z"
            fill="#F97338" data-color="3"></path>
        <path
            d="M77.11 112.438C83.592 97.357 99 79.102 117.472 88.843c7.964 4.2 15.047 14.012 5.936 21.154-7.293 5.716-17.383 8.486-26.567 7.293-7.076-.919-11.508-.57-17.767-4.011l-1.964-.841z"
            fill="#213472" data-color="4"></path>
        <path
            d="M145.938 74.152c1.181-1.829 4.132-1.938 6.003-1.395 1.903.553 3.795 1.999 3.677 4.16-.082 1.507-1.135 2.286-2.397 2.621l-.014.009c-2.14.875-4.826.44-6.504-1.197-1.115-1.089-1.66-2.812-.765-4.198z"
            fill="#213472" data-color="4"></path>
        <path
            d="M107.479 94.541c-2.372.418-4.398 1.478-6.278 2.958-1.056.831-2.562-.65-1.494-1.49 2.159-1.699 4.474-3.017 7.21-3.5 1.33-.234 1.901 1.796.562 2.032z"
            fill="#BFCAE4" data-color="2"></path>
        <path
            d="M121.059 103.205c-1.412 3.259-4.596 5.3-7.663 6.835-1.212.607-2.283-1.21-1.067-1.82 2.776-1.391 5.623-3.123 6.904-6.079.54-1.241 2.361-.169 1.826 1.064z"
            fill="#BFCAE4" data-color="2"></path>
        <path
            d="M106.9 103.583c-1.814 1.133-3.863 1.724-5.917 2.259-1.317.343-1.879-1.69-.562-2.032 1.887-.491 3.745-1.005 5.413-2.046 1.156-.722 2.217 1.1 1.066 1.819z"
            fill="#BFCAE4" data-color="2"></path>
        <path
            d="M93.704 101.969c-1.732 1.039-3.451 2.099-5.125 3.229-1.129.762-2.188-1.063-1.067-1.82 1.675-1.13 3.393-2.189 5.125-3.229 1.169-.701 2.232 1.121 1.067 1.82z"
            fill="#BFCAE4" data-color="2"></path>
        <path
            d="M99.387 112.568c-2.864.6-5.743.331-8.643.307-1.359-.012-1.362-2.119 0-2.108 2.695.023 5.421.326 8.082-.231 1.326-.278 1.893 1.753.561 2.032z"
            fill="#BFCAE4" data-color="2"></path>
        <path
            d="M116.578 96.087c-1.12 1.393-2.736 2.306-4.26 3.192-1.177.684-2.242-1.136-1.067-1.82 1.383-.804 2.816-1.598 3.833-2.862.85-1.059 2.337.441 1.494 1.49z"
            fill="#BFCAE4" data-color="2"></path>
    </g>
</svg>