<svg preserveAspectRatio="xMidYMid meet" data-bbox="20 29.5 160 141" viewBox="20 29.5 160 141" height="200" width="200" xmlns="http://www.w3.org/2000/svg" data-type="color" role="img" aria-labelledby="comp-k03gpw5l1-svgtitle"><title id="comp-k03gpw5l1-svgtitle">ABC Cubes</title>
    <g>
        <path d="M20.204 89.087c1.635.41 60.809.921 60.809.921l1.226 60.606-61.456-2.082-.579-59.445z" fill="#4692D8" data-color="1"></path>
        <path fill="#213472" d="M81.014 90.008l12.161-5.187 1.397 60.06-12.332 5.733-1.226-60.606z" data-color="2"></path>
        <path fill="#FFCFAE" d="M93.073 84.924l-61.627-.785L20 89.087l60.605 1.126 12.468-5.289z" data-color="3"></path>
        <path d="M38.449 104.03c.46 8.906.332 17.783-.383 26.672-.331 4.116 6.075 4.094 6.405 0 .715-8.889.843-17.766.383-26.672-.213-4.108-6.619-4.134-6.405 0z" fill="#FFCFAE" data-color="3"></path>
        <path d="M42.947 107.498c2.821-.85 15.599-2.854 11.209 3.626-1.942 2.866-9.404 3.683-12.452 3.859l.851 6.301c3.346-.948 23.245-5.142 16.041 3.597-3.883 4.711-12.042 6.081-17.653 5.27-4.032-.582-5.773 5.598-1.703 6.186 9.252 1.337 25.857-2.104 28.013-13.359 2.675-13.966-19.702-9.779-26.4-7.881-3.38.957-2.849 6.515.851 6.301 6.764-.391 21.487-3.593 20.832-12.936-.676-9.642-14.948-9.062-21.291-7.151-3.937 1.186-2.26 7.38 1.702 6.187z" fill="#FFCFAE" data-color="3"></path>
        <path d="M179.808 111.611c-1.534.384-57.06-.739-57.06-.739l-1.151 58.374 57.667 1.254.544-58.889z" fill="#FFCFAE" data-color="3"></path>
        <path fill="#213472" d="M122.749 110.872l-15.92-6.471.192 56.257 14.577 8.588 1.151-58.374z" data-color="2"></path>
        <path fill="#F97338" d="M106.925 104.497l62.334.867L180 111.611l-56.868-.547-16.207-6.567z" data-color="4"></path>
        <path d="M139.733 157.196c4.389-10.196 10.456-19.479 15.896-29.119 2.031-3.599-3.5-6.836-5.53-3.238-5.44 9.64-11.506 18.924-15.896 29.119-1.615 3.751 3.901 7.023 5.53 3.238z" fill="#213472" data-color="2"></path>
        <path d="M150.101 126.738a217.742 217.742 0 0 0 8.521 29.719c1.405 3.846 7.596 2.185 6.176-1.705a217.701 217.701 0 0 1-8.521-29.719c-.854-4.037-7.029-2.329-6.176 1.705z" fill="#213472" data-color="2"></path>
        <path d="M158.03 141.315c-5.112.451-10.24.682-15.352 1.133-4.074.359-4.112 6.778 0 6.415 5.112-.451 10.24-.682 15.352-1.133 4.074-.359 4.112-6.778 0-6.415z" fill="#213472" data-color="2"></path>
        <path d="M107.505 30.917c-1.473.388-53.536-1.417-53.536-1.417l-.358 62.035 54.073-2.538-.179-58.08z" fill="#F97338" data-color="4"></path>
        <path fill="#213472" d="M53.969 29.5l-8.862 5.645-.795 49.776 9.299 6.614.358-62.035z" data-color="2"></path>
        <path d="M92.582 48.216c-10.792-6.699-29.857-.543-28.78 14.335.491 6.778 6.438 11.698 12.607 13.421 6.94 1.939 13.791-.135 19.337-4.456 2.925-2.279-1.181-6.338-4.076-4.083-6.357 4.953-22.344 5.085-21.899-6.203.387-9.826 13.017-12.302 19.901-8.029 3.163 1.963 6.061-3.029 2.91-4.985z" fill="#FFCFAE" data-color="3"></path>
    </g>
</svg>