<svg preserveAspectRatio="xMidYMid meet" data-bbox="20 78 160.001 44" viewBox="20 78 160.001 44" height="200" width="200" xmlns="http://www.w3.org/2000/svg" data-type="color" role="img" aria-labelledby="comp-k03gpw5h-svgtitle"><title id="comp-k03gpw5h-svgtitle">Pencils Icon</title>
    <g>
        <path d="M107.671 94.065h69.1s5.539 1.705 2.11 6.296c-1.268 1.698-71.21.787-71.21.787s-13.978-2.099-11.341-3.673c2.637-1.574 11.341-3.41 11.341-3.41z" fill="#F97338" data-color="1"></path>
        <path d="M169.573 94.665c1.327 1.516 1.62 4.42.33 6.014-.31.383.235.931.548.545 1.573-1.943 1.3-5.242-.33-7.103-.328-.375-.874.172-.548.544z" fill="#213472" data-color="2"></path>
        <path d="M111.367 94.173c1.558 2.197 1.374 5.617-1.32 6.774-.456.196-.062.86.391.665 3.066-1.317 3.381-5.312 1.598-7.828-.286-.403-.958-.018-.669.389z" fill="#213472" data-color="2"></path>
        <path d="M108.927 94.173c1.558 2.197 1.374 5.617-1.32 6.774-.456.196-.062.86.391.665 3.066-1.317 3.381-5.312 1.598-7.828-.285-.403-.957-.018-.669.389z" fill="#213472" data-color="2"></path>
        <path d="M92.983 114.621l67.065-16.557s5.788.328 3.573 5.605c-.819 1.952-68.922 17.826-68.922 17.826s-14.075 1.312-11.896-.847c2.178-2.159 10.18-6.027 10.18-6.027z" fill="#FFCFAE" data-color="3"></path>
        <path d="M153.213 100.374c1.657 1.154 2.633 3.908 1.769 5.759-.209.447.459.839.669.389 1.057-2.266-.016-5.398-2.047-6.813-.409-.285-.797.382-.391.665z" fill="#213472" data-color="2"></path>
        <path d="M96.6 113.843c1.969 1.695 2.734 5.086.431 6.831-.391.297-.006.966.391.665 2.687-2.036 2.134-5.968-.274-8.041-.375-.323-.926.22-.548.545z" fill="#213472" data-color="2"></path>
        <path d="M94.233 114.428c1.969 1.695 2.734 5.086.431 6.831-.391.297-.006.966.391.665 2.687-2.036 2.134-5.968-.274-8.041-.376-.323-.926.22-.548.545z" fill="#213472" data-color="2"></path>
        <path d="M82.879 100.722C82.111 100.532 24.078 78 24.078 78s-5.788.328-3.573 5.605c.819 1.952 58.592 23.991 58.592 23.991s13.716 3.364 12.715.471c-.586-1.698-8.933-7.345-8.933-7.345z" fill="#4692D8" data-color="4"></path>
        <path d="M31.081 80.689c-2.181 1.044-3.739 3.996-3.072 6.337.136.476.883.274.747-.205-.575-2.017.848-4.573 2.716-5.467.449-.215.057-.88-.391-.665z" fill="#213472" data-color="2"></path>
        <path d="M78.606 98.881c-2.324 1.948-3.373 4.458-3.103 7.416.045.49.82.495.775 0-.252-2.767.691-5.04 2.876-6.871.381-.32-.169-.863-.548-.545z" fill="#213472" data-color="2"></path>
        <path d="M81.573 99.863c-2.571 1.696-3.902 4.081-3.969 7.097-.011.496.764.496.775 0 .061-2.729 1.249-4.89 3.585-6.431.414-.274.026-.941-.391-.666z" fill="#213472" data-color="2"></path>
    </g>
</svg>