<svg preserveAspectRatio="xMidYMid meet" data-bbox="40.501 20.001 118.998 159.998" viewBox="40.501 20.001 118.998 159.998" height="200" width="200" xmlns="http://www.w3.org/2000/svg" data-type="color" role="img" aria-labelledby="comp-k02htt1k-svgtitle"><title id="comp-k02htt1k-svgtitle">Gazelle Icon</title>
    <g>
        <path d="M153.564 154.237c-3.734-7.866-8.677-15.047-12.426-22.863-2.222-4.631-4.275-9.343-6.366-14.034-1.231-2.761-2.285-5.765-4.077-8.221-2.812-3.855-2.668-6.325-.833-10.935 3.186-8.004 7.13-15.962 10.868-23.729 2.415-5.017 5.208-9.514 5.508-15.177.222-4.203.599-8.395 1.016-12.582 4.026.066 7.976-1.987 10.014-5.5 1.56-2.688 3.82-10.985.578-13.354-1.4-1.023-4.378-.556-5.845-.096-3.54 1.109-6.019 4.33-8.505 6.889-1.502 1.546-2.827 3.275-5.071 3.054-1.666-.164-3.454-1.004-5.161-1.268a51.33 51.33 0 0 0-5.822-.553c.475-5.019-5.968-10.293-9.055-12.942-2.058-1.766-4.138-4.55-6.283-1.701-3.345 4.444-.783 13.064 1.105 17.587.267.64.547 1.333.923 1.924-.086.06-.184.132-.306.229-2.607 2.071-4.865 6.497-6.15 9.453-1.492 3.432-.982 5.104-4.67 6.845-1.929.911-2.234 1.001-2.848 2.716-2.319 6.475 1.87 8.579 7.619 9.511 2.569.417 5.408 1.043 8.016 1.049.494.001.795.051.973.1.213.648.389 1.319.441 1.996.753 9.821-15.448-.208-19.018-1.732-7.529-3.214-14.375-2.081-22.086-.05-3.842 1.012-7.638 2.353-11.535 3.138-2.141.431-4.702 1.187-5.597-1.705-.465-1.501.505-3.748.41-5.34-.231-3.864-3.817-6.329-6.477-2.807-1.703 2.255-2.454 5.386-3.542 7.95-.982 2.313-2.513 5.075-2.148 7.698.904 6.499 7.899 11.986 7.808 18.614-.057 4.134-4.375 7.182-6.764 10.215-2.115 2.686-3.226 5.545-3.956 8.869-1.482 6.743-1.285 13.614-1.657 20.462-.348 6.405-.842 12.802-1.32 19.198-.264 3.531-2.027 9.534.599 12.509 1.396 1.581 4.69 3.92 6.978 3.186 2.073-.665 3.296-3.774 4.028-5.53 2.595-6.226 1.783-13.106 1.783-19.707 0-3.062-.179-6.186 0-9.243.164-2.796 1.354-5.447 2.668-7.92 6.839 6.909 9.016 17.503 12.472 26.377 1.75 4.492 3.469 9.019 5.455 13.414 1.488 3.294 4.118 4.516 7.762 5.192 10.005 1.856 3.753-10.693 1.798-15.437-3.706-8.993-7.673-17.955-11.997-26.668-1.714-3.454-5.741-7.141-5.382-11.18.258-2.903 3.994-4.783 6.097-6.238 2.474-1.712 5.013-3.333 7.571-4.916.56-.347 1.162-.862 1.778-1.094.07.018.158.038.284.058 2.723.433 5.57 1.604 8.167 2.492 2.538.867 4.847 2.119 7.322 3.102 3.309 1.315 6.623 1.106 6.435 5.381-.238 5.42-1.181 10.947-1.663 16.364-.394 4.425-.637 8.845-1.956 13.099-1.637 5.28-2.997 10.689-4.132 16.098-.813 3.872-2.242 8.13 1.349 10.967 1.672 1.321 5.241 3.218 7.507 2.311 4.014-1.607 4.86-10.225 5.353-13.476 1.134-7.47 1.157-15.109 1.719-22.634.526-7.038 1.841-13.995 3.474-20.857a355.7 355.7 0 0 1 9.19 10.294c4.446 5.186 9.17 10.437 11.815 16.811 2.536 6.112 4.363 12.779 7.418 18.649 2.068 3.973 8.397 4.002 12.392 4.415.288.03.653-.188.777-.447.614-1.278.131-3.103-.114-4.398-.904-4.776-2.627-9.498-4.708-13.882zm-36.649-83.548c.093.042.072.061 0 0z" fill="#F97338" data-color="1"></path>
        <path d="M133.836 53.134c-.594-.938-1.76-1.601-2.806-1.886-1.562-.425-3.858-.326-4.857 1.163-1.318 1.963-.707 4.097 1.478 5.009 1.99.831 4.229.032 5.641-1.475.696-.859 1.196-1.779.544-2.811z" fill="#213472" data-color="2"></path>
        <path d="M104.703 78.947c.244-.542.179-1.238-.452-1.658-2.864-1.908-6.574-3.657-10.087-2.963-.813.161-1.177 1.222-.768 1.892 2.084 3.417 6.654 3.908 10.149 4.961 1.397.42 2.088-1.45 1.158-2.232z" fill="#FFCFAE" data-color="3"></path>
        <path d="M91.712 82.152c-2.085-1.266-4.467-1.905-6.901-1.929-1.161-.011-1.634 1.393-.909 2.198 1.46 1.623 4.162 3.015 6.363 2.34.186-.057.338-.143.463-.248 1.283.395 2.293-1.566.984-2.361z" fill="#FFCFAE" data-color="3"></path>
        <path d="M83.018 74.298c-1.465-.025-4.645-.62-6.431.252-.536.002-.972.261-1.208.773-1.627.136-1.637 2.697.012 2.574.292-.022.582-.063.873-.094a.987.987 0 0 0 .937-.1c1.942-.255 3.866-.634 5.817-.829 1.616-.162 1.688-2.546 0-2.576z" fill="#FFCFAE" data-color="3"></path>
    </g>
</svg>