<svg preserveAspectRatio="xMidYMid meet" data-bbox="20 26.5 160 147" viewBox="20 26.5 160 147" height="200" width="200" xmlns="http://www.w3.org/2000/svg" data-type="color" role="img" aria-labelledby="comp-k03gpw5l-svgtitle"><title id="comp-k03gpw5l-svgtitle">Drums Icon</title>
    <g>
        <path d="M178.779 62.152c-1.097-10.607-23.047-25.969-72.432-27.798-38.105-1.411-78.285 16.459-78.285 29.992 0 37.453-.732 40.234-.366 81.565.272 30.772 151.808 31.245 151.449-1.097-.366-32.918-.366-82.662-.366-82.662z" fill="#F97338" data-color="1"></path>
        <path d="M178.779 61.421c-1.097-10.607-23.047-25.969-72.432-27.798-38.105-1.411-78.285 16.459-78.285 29.992 0 0 26.705 24.262 73.042 24.018s77.675-26.212 77.675-26.212z" fill="#FFCFAE" data-color="2"></path>
        <path d="M27.583 70.844c5.35 17.578 28.159 91.405 28.159 91.405s25.851-72.177 23.412-77.541c-2.032-4.47-37.247-13.679-48.939-16.627-1.657-.418-3.129 1.128-2.632 2.763z" fill="#FFCFAE" data-color="2"></path>
        <path d="M78.179 84.22c.488 1.951 31.217 83.881 31.217 83.881s27.635-86.895 21.949-85.344c-10.731 2.926-53.166 1.463-53.166 1.463z" fill="#4692D8" data-color="3"></path>
        <path d="M131.832 84.22c.488 1.951 25.851 78.029 25.851 78.029s22.437-94.61 19.51-93.147c-14.203 7.1-45.361 15.118-45.361 15.118z" fill="#FFCFAE" data-color="2"></path>
        <path d="M27.574 70.443c46.949 23.996 105.981 27.529 151.205-.732.976-.61.732-10.119-.61-9.144-39.738 28.896-105.6 24.14-149.376.853-1.642-.873-2.073 9.267-1.219 9.023z" fill="#213472" data-color="4"></path>
        <path d="M28.915 153.958c46.949 23.996 106.138 28.645 149.986-1.707 1.585-1.097 1.341-9.997 0-9.022-39.738 28.896-107.185 24.018-150.961.732-1.642-.874.122 10.241.975 9.997z" fill="#213472" data-color="4"></path>
        <path d="M55.076 32.995c18.62 9.04 36.297 19.915 55.084 28.616 4.137 1.916 11.239-3.58 5.872-6.066C97.245 46.844 79.568 35.97 60.948 26.93c-4.116-1.999-11.204 3.477-5.872 6.065z" fill="#213472" data-color="4"></path>
        <path d="M118.784 53.616c-4.001-.985-9.113-.074-11.233 3.918-2.18 4.105 1.261 8.364 5.125 9.674 3.677 1.246 8.77.521 11.469-2.472 3.259-3.614.989-7.955-2.757-10.039-1.977-1.1-4.959-1.22-6.64.513-1.609 1.658-.716 4.04 1.129 5.067.567.315.59.431.405.157-.009-.014-.013-.288.093-.251-.35.359-.43.443-.242.251.329-.076.237-.038-.277.115.723-.066-1.675-.27-.161.12-.144-.037.894.326.826.32-1.31-.119.002-.59-.146-.346-.237.39.418-.445.165-.198.459-.277.562-.331.307-.162a2.16 2.16 0 0 1-1.393-.103c2.084.513 5.018.434 6.127-1.798 1.007-2.026-.831-4.282-2.797-4.766z" fill="#4692D8" data-color="3"></path>
        <path d="M22.847 41.703c21.976 7.909 44.494 14.079 67.196 19.512 5.826 1.394 6.756-5.719 1.044-7.086C69.214 48.894 47.538 42.86 26.366 35.24c-5.102-1.836-9.422 4.339-3.519 6.463z" fill="#213472" data-color="4"></path>
        <path d="M91.57 61.456c2.008 1.022 3.322-1.684 3.222-3.935s-2.395-4.007-4.648-3.954c-2.253.053-4.283 1.585-5.428 3.525-.93 1.575-.548 3.509.543 4.977 1.091 1.469 5.953 1.181 6.311-.613" fill="#4692D8" data-color="3"></path>
        <path d="M88.909 64.733c5.779 2.2 12.348-3.268 10.294-9.449-2.173-6.539-10.837-6.342-15.505-2.908-2.142 1.576-4.095 4.122-4.196 6.864-.096 2.609 1.221 5.454 3.671 6.572 3.793 1.73 11.279 1.043 12.837-3.603 1.76-5.25-7.443-5.788-8.879-1.505.175-.522 1-.914 1.386-1.231.834-.684-.043-.015.344-.112.345-.086-.172-.165-.018.009.314.038.241.027-.219-.032l.338.127c-.6-.808.413.85.534.563.012-.027-.477-.852-.51-.995-.141-.609-.122-.696.265-1.235.155-.216.732-.792.81-.683.053.074-.736.179-.612.059-.361.35-.125-.337.242.216.209.315.353.493.401.851.037.278-.146.607-.119.851.082.744-1.708-.396 1.602-.888l2.457-.111.199.086c-2.199-.837-5.049-.241-6.552 1.64-1.356 1.697-.888 4.108 1.23 4.914z" fill="#4692D8" data-color="3"></path>
    </g>
</svg>