<?xml version="1.0" encoding="UTF-8" standalone="no"?>
<svg
   preserveAspectRatio="xMidYMid meet"
   data-bbox="20 34 160 132"
   viewBox="20 34 160 132"
   height="200"
   width="200"
   data-type="color"
   role="img"
   aria-labelledby="comp-k03gpw5m-svgtitle"
   version="1.1"
   id="svg145"
   sodipodi:docname="flag.svg"
   inkscape:version="1.1.2 (b8e25be833, 2022-02-05)"
   xmlns:inkscape="http://www.inkscape.org/namespaces/inkscape"
   xmlns:sodipodi="http://sodipodi.sourceforge.net/DTD/sodipodi-0.dtd"
   xmlns="http://www.w3.org/2000/svg"
   xmlns:svg="http://www.w3.org/2000/svg"
   xmlns:rdf="http://www.w3.org/1999/02/22-rdf-syntax-ns#"
   xmlns:cc="http://creativecommons.org/ns#"
   xmlns:dc="http://purl.org/dc/elements/1.1/">
  <defs
     id="defs149" />
  <sodipodi:namedview
     id="namedview147"
     pagecolor="#ffffff"
     bordercolor="#666666"
     borderopacity="1.0"
     inkscape:pageshadow="2"
     inkscape:pageopacity="0.0"
     inkscape:pagecheckerboard="0"
     showgrid="false"
     inkscape:zoom="4.155"
     inkscape:cx="84.837545"
     inkscape:cy="99.879663"
     inkscape:window-width="1920"
     inkscape:window-height="1017"
     inkscape:window-x="-8"
     inkscape:window-y="-8"
     inkscape:window-maximized="1"
     inkscape:current-layer="g143" />
  <title
     id="comp-k03gpw5m-svgtitle">Liczydło</title>
  <g
     id="g143">
    <path
       d="m 36.683,39.219 c -6.486,35.793 -11.471,71.844 -16.595,107.851 -1.071,7.528 8.022,6.622 8.957,0.058 5.123,-36.008 10.108,-72.058 16.594,-107.851 1.359,-7.5 -7.782,-6.538 -8.956,-0.058 z"
       fill="#213472"
       data-color="1"
       id="path5" />
    <path
       style="fill:#0057b7;fill-opacity:1;stroke-width:0.192539"
       d="m 113.01162,91.029728 c -2.65457,-0.961536 -3.91161,-2.65432 -4.03029,-5.427376 -0.0604,-1.412032 -0.0102,-1.712456 0.44083,-2.63424 2.02518,-4.139328 8.49579,-4.494536 11.16902,-0.61312 0.37663,0.546848 0.77134,1.296072 0.87713,1.664944 0.24717,0.861832 0.24531,2.78524 -0.004,3.681176 -0.25067,0.902416 -1.52562,2.343648 -2.6631,3.010416 -0.79875,0.468208 -1.11399,0.530424 -2.91718,0.575728 -1.47685,0.03712 -2.25105,-0.03232 -2.87286,-0.257528 z"
       id="path4488" />
    <path
       style="fill:#0057b7;fill-opacity:1;stroke-width:0.192539"
       d="m 54.693292,72.859688 c -2.874133,-0.993874 -4.51171,-4.008144 -3.734596,-6.874232 0.54398,-2.006261 2.547474,-3.925491 4.526784,-4.336394 1.329274,-0.275957 3.393804,0.01794 4.670451,0.664868 1.116752,0.565902 2.426454,1.955731 2.974383,3.156356 0.56238,1.232291 0.5656,3.263723 0.007,4.462222 -0.86254,1.850855 -2.263293,2.765177 -4.70541,3.071393 -2.135315,0.267746 -2.599096,0.249856 -3.738684,-0.144213 z"
       id="path4714-5" />
    <path
       style="fill:#0057b7;fill-opacity:1;stroke-width:0.192539"
       d="m 102.25045,64.580506 c -2.874129,-0.993874 -4.511706,-4.008144 -3.734592,-6.874232 0.54398,-2.006261 2.547472,-3.925491 4.526782,-4.336394 1.32928,-0.275957 3.39381,0.01794 4.67045,0.664868 1.11676,0.565902 2.42646,1.955731 2.97439,3.156356 0.56238,1.232291 0.5656,3.263723 0.007,4.462222 -0.86254,1.850855 -2.2633,2.765177 -4.70541,3.071393 -2.13532,0.267746 -2.5991,0.249856 -3.73869,-0.144213 z"
       id="path4714-5-9" />
    <path
       style="fill:#0057b7;fill-opacity:1;stroke-width:0.192539"
       d="m 65.475475,73.629844 c -2.87412,-0.993874 -4.511702,-4.008144 -3.734588,-6.874232 0.543978,-2.006261 2.547468,-3.925491 4.526778,-4.336394 1.32928,-0.275957 3.39381,0.01794 4.67045,0.664868 1.11676,0.565902 2.42646,1.955731 2.97439,3.156356 0.56238,1.232291 0.5656,3.263723 0.007,4.462222 -0.86254,1.850855 -2.2633,2.765177 -4.70541,3.071393 -2.13532,0.267746 -2.5991,0.249856 -3.73869,-0.144213 z"
       id="path4714-5-9-5" />
    <path
       style="fill:#0057b7;fill-opacity:1;stroke-width:0.192539"
       d="m 77.605438,73.437305 c -2.874117,-0.993874 -4.511699,-4.008144 -3.734585,-6.874232 0.543978,-2.006261 2.547468,-3.925491 4.526775,-4.336394 1.32928,-0.275957 3.39381,0.01794 4.67045,0.664868 1.11676,0.565902 2.42646,1.955731 2.97439,3.156356 0.56238,1.232291 0.5656,3.263723 0.007,4.462222 -0.86254,1.850855 -2.2633,2.765177 -4.70541,3.071393 -2.13532,0.267746 -2.5991,0.249856 -3.73869,-0.144213 z"
       id="path4714-5-9-5-2" />
    <path
       style="fill:#0057b7;fill-opacity:1;stroke-width:0.192539"
       d="m 100.71013,75.747775 c -2.874117,-0.993874 -4.511699,-4.008144 -3.734585,-6.874232 0.543978,-2.006261 2.547469,-3.925491 4.526775,-4.336394 1.32928,-0.275957 3.39381,0.01794 4.67045,0.664868 1.11676,0.565902 2.42646,1.955731 2.97439,3.156356 0.56238,1.232291 0.5656,3.263723 0.007,4.462222 -0.86254,1.850855 -2.2633,2.765177 -4.70541,3.071393 -2.13532,0.267746 -2.5991,0.249856 -3.73869,-0.144213 z"
       id="path4714-5-9-5-2-0" />
    <path
       style="fill:#0057b7;fill-opacity:1;stroke-width:0.192539"
       d="m 112.76789,76.604707 c -0.43346,-0.09 -1.08328,-0.28895 -1.44404,-0.44218 -0.9359,-0.39754 -2.43453,-1.786015 -2.88881,-2.676473 -1.33666,-2.620071 -0.0238,-5.830188 2.94518,-7.201079 1.06361,-0.491115 1.42662,-0.558894 2.94594,-0.550044 1.39164,0.0081 1.90863,0.09556 2.62549,0.444111 2.27823,1.107717 3.4395,2.839556 3.4395,5.129429 0,3.061909 -2.09705,5.110446 -5.48737,5.360426 -0.74127,0.0547 -1.70242,0.0258 -2.13589,-0.0642 z"
       id="path4753-36-6" />
    <path
       style="fill:#0057b7;fill-opacity:1;stroke-width:0.192539"
       d="m 43.261272,83.536128 c -0.433465,-0.08996 -1.083285,-0.288944 -1.444044,-0.442181 -0.935899,-0.397538 -2.434528,-1.786014 -2.888805,-2.676472 -1.336661,-2.620071 -0.02375,-5.830188 2.945181,-7.201079 1.063608,-0.491115 1.42662,-0.558894 2.945942,-0.550044 1.391634,0.0081 1.908622,0.09556 2.625487,0.444111 2.278225,1.107717 3.439495,2.839556 3.439495,5.129429 0,3.061909 -2.097047,5.110444 -5.487364,5.360426 -0.741276,0.05466 -1.702428,0.02578 -2.135892,-0.06419 z"
       id="path4753-3" />
    <path
       style="fill:#0057b7;fill-opacity:1;stroke-width:0.192539"
       d="m 123.07175,77.070024 c -2.11303,-0.812485 -3.35259,-2.626645 -3.48875,-5.10597 -0.0763,-1.38899 -0.0282,-1.690198 0.43486,-2.721941 0.64059,-1.427437 1.39981,-2.182965 2.86763,-2.853706 0.98102,-0.448293 1.30825,-0.503978 2.503,-0.42594 3.70046,0.241703 6.29331,3.530961 5.43238,6.891467 -0.90454,3.530789 -4.47678,5.474345 -7.74912,4.21609 z"
       id="path4792" />
    <path
       style="fill:#0057b7;fill-opacity:1;stroke-width:0.192539"
       d="m 145.59365,65.13968 c -1.34895,-0.530752 -2.80738,-1.881266 -3.44998,-3.194685 -0.42596,-0.870633 -0.52313,-1.334399 -0.52313,-2.496679 0,-1.245232 0.084,-1.591705 0.65784,-2.714445 1.57846,-3.088134 5.10255,-4.361056 7.98637,-2.884727 2.98004,1.525581 4.3526,5.117481 2.87604,7.526439 -0.31768,0.518303 -0.82777,1.411049 -1.13352,1.983879 -0.30574,0.57283 -0.86195,1.275117 -1.236,1.560639 -0.60823,0.464262 -0.86489,0.524109 -2.42846,0.566244 -1.38668,0.03737 -1.95538,-0.03434 -2.74916,-0.346665 z m 2.49666,-7.432038 c -0.13036,-0.05274 -0.39029,-0.05595 -0.57762,-0.0071 -0.18734,0.04882 -0.0807,0.09197 0.23701,0.09589 0.31769,0.0039 0.47096,-0.03602 0.34061,-0.08876 z"
       id="path4831" />
    <path
       style="fill:#0057b7;fill-opacity:1;stroke-width:0.192539"
       d="m 91.656669,63.704641 c -1.34895,-0.530752 -2.80738,-1.881266 -3.44998,-3.194685 -0.42596,-0.870633 -0.52313,-1.334399 -0.52313,-2.496679 0,-1.245232 0.084,-1.591705 0.65784,-2.714445 1.57846,-3.088134 5.10255,-4.361056 7.98637,-2.884727 2.98004,1.525581 4.352601,5.117481 2.87604,7.526439 -0.31768,0.518303 -0.82777,1.411049 -1.13352,1.983879 -0.30574,0.57283 -0.86195,1.275117 -1.236,1.560639 -0.60823,0.464262 -0.86489,0.524109 -2.42846,0.566244 -1.38668,0.03737 -1.95538,-0.03434 -2.74916,-0.346665 z m 2.49666,-7.432038 c -0.13036,-0.05274 -0.39029,-0.05595 -0.57762,-0.0071 -0.18734,0.04882 -0.0807,0.09197 0.23701,0.09589 0.31769,0.0039 0.47096,-0.03602 0.34061,-0.08876 z"
       id="path4831-6" />
    <path
       style="fill:#0057b7;fill-opacity:1;stroke-width:0.192539"
       d="m 44.677124,71.983822 c -1.34895,-0.530752 -2.80738,-1.881266 -3.44998,-3.194685 -0.42596,-0.870633 -0.52313,-1.334399 -0.52313,-2.496679 0,-1.245232 0.084,-1.591705 0.65784,-2.714445 1.57846,-3.088134 5.10255,-4.361056 7.98637,-2.884727 2.980042,1.525581 4.352602,5.117481 2.876042,7.526439 -0.31768,0.518303 -0.82777,1.411049 -1.133522,1.983879 -0.30574,0.57283 -0.86195,1.275117 -1.236,1.560639 -0.60823,0.464262 -0.86489,0.524109 -2.42846,0.566244 -1.38668,0.03737 -1.95538,-0.03434 -2.74916,-0.346665 z m 2.49666,-7.432038 c -0.13036,-0.05274 -0.39029,-0.05595 -0.57762,-0.0071 -0.18734,0.04882 -0.0807,0.09197 0.23701,0.09589 0.31769,0.0039 0.47096,-0.03602 0.34061,-0.08876 z"
       id="path4831-6-7" />
    <path
       style="fill:#0057b7;fill-opacity:1;stroke-width:0.192539"
       d="m 135.1705,66.01511 c -1.34895,-0.530752 -2.80738,-1.881266 -3.44998,-3.194685 -0.42596,-0.870633 -0.52313,-1.334399 -0.52313,-2.496679 0,-1.245232 0.084,-1.591705 0.65784,-2.714445 1.57846,-3.088134 5.10255,-4.361056 7.98637,-2.884727 2.98005,1.525581 4.35261,5.117481 2.87605,7.526439 -0.31768,0.518303 -0.82777,1.411049 -1.13353,1.983879 -0.30574,0.57283 -0.86195,1.275117 -1.236,1.560639 -0.60823,0.464262 -0.86489,0.524109 -2.42846,0.566244 -1.38668,0.03737 -1.95538,-0.03434 -2.74916,-0.346665 z m 2.49666,-7.432038 c -0.13036,-0.05274 -0.39029,-0.05595 -0.57762,-0.0071 -0.18734,0.04882 -0.0807,0.09197 0.23701,0.09589 0.31769,0.0039 0.47096,-0.03602 0.34061,-0.08876 z"
       id="path4831-6-7-9" />
    <path
       style="fill:#0057b7;fill-opacity:1;stroke-width:0.192539"
       d="m 145.39489,77.664709 c -2.05207,-0.429333 -3.90811,-1.794338 -4.8318,-3.55349 -0.4343,-0.827105 -0.50995,-1.212777 -0.51226,-2.611409 -0.002,-1.532335 0.0396,-1.706946 0.63661,-2.63725 1.78244,-2.777693 4.73109,-4.015767 7.7327,-3.246791 3.48266,0.892217 5.86646,4.221821 5.21093,7.278439 -0.57787,2.694532 -3.01422,4.564935 -6.31271,4.84631 -0.60994,0.05203 -1.4755,0.01791 -1.92347,-0.07581 z"
       id="path4870" />
    <path
       style="fill:#0057b7;fill-opacity:1;stroke-width:0.192539"
       d="m 134.60076,92.705104 c -2.05206,-0.429333 -3.9081,-1.794338 -4.8318,-3.55349 -0.43429,-0.827105 -0.50995,-1.212777 -0.51225,-2.611409 -0.002,-1.532335 0.0396,-1.706946 0.6366,-2.63725 1.78244,-2.777693 4.73109,-4.015767 7.7327,-3.246791 3.48267,0.892217 5.86646,4.221821 5.21094,7.278439 -0.57788,2.694532 -3.01423,4.564935 -6.31272,4.84631 -0.60993,0.05203 -1.47549,0.01791 -1.92347,-0.07581 z"
       id="path4870-4" />
    <path
       style="fill:#0057b7;fill-opacity:1;stroke-width:0.192539"
       d="m 90.894358,89.046862 c -2.05206,-0.42933 -3.9081,-1.79433 -4.8318,-3.55349 -0.43429,-0.8271 -0.50995,-1.21277 -0.51225,-2.61141 -0.002,-1.53234 0.0396,-1.70695 0.6366,-2.63725 1.78244,-2.77769 4.73109,-4.01577 7.732704,-3.24679 3.48267,0.89222 5.86646,4.22182 5.21094,7.27844 -0.57788,2.69453 -3.01423,4.56494 -6.31272,4.84631 -0.60993,0.052 -1.47549,0.0179 -1.923474,-0.0758 z"
       id="path4870-4-6" />
    <path
       style="fill:#0057b7;fill-opacity:1;stroke-width:0.192539"
       d="m 90.316744,76.339288 c -2.05206,-0.42933 -3.9081,-1.79433 -4.8318,-3.55349 -0.43429,-0.8271 -0.50995,-1.21277 -0.51225,-2.61141 -0.002,-1.53234 0.0396,-1.70695 0.6366,-2.63725 1.78244,-2.77769 4.73109,-4.01577 7.732704,-3.24679 3.48267,0.89222 5.866456,4.22182 5.21094,7.27844 -0.57788,2.69453 -3.01423,4.56494 -6.31272,4.84631 -0.60993,0.052 -1.47549,0.0179 -1.923474,-0.0758 z"
       id="path4870-4-6-7" />
    <path
       style="fill:#0057b7;fill-opacity:1;stroke-width:0.192539"
       d="m 66.249376,86.736392 c -2.05206,-0.429333 -3.9081,-1.794338 -4.8318,-3.55349 -0.4343,-0.827105 -0.50995,-1.212777 -0.51226,-2.611409 -0.002,-1.532335 0.0396,-1.706946 0.63661,-2.63725 1.78244,-2.777693 4.73109,-4.015767 7.7327,-3.246791 3.48266,0.892217 5.86646,4.221821 5.21093,7.278439 -0.57787,2.694532 -3.01422,4.564935 -6.31271,4.84631 -0.60993,0.05203 -1.47549,0.01791 -1.92347,-0.07581 z"
       id="path4870-3" />
    <path
       style="fill:#0057b7;fill-opacity:1;stroke-width:0.192539"
       d="m 114.79543,65.142447 c -1.84602,-0.365221 -3.41683,-1.634324 -4.27973,-3.45773 -0.40287,-0.851297 -0.50043,-1.342148 -0.49755,-2.503008 0.004,-1.686151 0.52324,-2.891042 1.75824,-4.081394 1.88139,-1.813393 4.91093,-2.316571 7.3411,-1.219286 4.09598,1.849438 5.1343,7.260878 1.92095,10.01139 -1.50806,1.290844 -3.75881,1.741509 -6.24301,1.250028 z"
       id="path4909" />
    <path
       style="fill:#ffd700;fill-opacity:1;stroke-width:0.192539"
       d="m 133.46838,107.50048 c -1.08895,-0.21532 -1.86744,-0.64296 -2.90585,-1.59624 -3.31025,-3.03884 -1.78815,-7.913971 2.84005,-9.096379 2.43676,-0.622542 4.73804,0.0136 6.32314,1.747976 2.39075,2.615863 1.9852,6.445473 -0.85909,8.112333 -1.53067,0.89703 -3.51984,1.20373 -5.39825,0.83231 z"
       id="path5065" />
    <path
       style="fill:#ffd700;fill-opacity:1;stroke-width:0.192539"
       d="m 143.27458,93.576449 c -0.66107,-0.252096 -1.35421,-0.573464 -1.54031,-0.714152 -1.68796,-1.276072 -2.42358,-2.610408 -2.43382,-4.41464 -0.018,-3.172408 2.50452,-5.654056 5.7537,-5.66052 3.0519,-0.0064 5.64452,2.209536 5.98606,5.1156 0.27257,2.31908 -0.88196,4.300784 -3.13089,5.374104 -1.71759,0.819728 -3.04567,0.905584 -4.63474,0.299608 z m 2.01623,-7.555592 c -0.064,-0.064 -0.23004,-0.0708 -0.36903,-0.0152 -0.1536,0.06144 -0.10797,0.107088 0.11632,0.116328 0.20297,0.0083 0.31669,-0.03712 0.25271,-0.101128 z"
       id="path5215" />
    <path
       style="fill:#ffd700;fill-opacity:1;stroke-width:0.192539"
       d="m 109.00495,120.11796 c -1.41438,-0.71581 -2.82281,-2.04583 -3.40622,-3.21659 -0.66518,-1.33484 -0.69543,-3.27184 -0.0706,-4.52288 0.55585,-1.11296 2.07823,-2.62249 3.20432,-3.17727 0.76791,-0.37831 1.19435,-0.44069 3.01247,-0.44069 1.82889,0 2.24223,0.0612 3.02876,0.44858 1.39012,0.68464 2.74506,2.01349 3.4102,3.34455 0.73029,1.46144 0.82247,3.36931 0.21987,4.55051 -0.48258,0.94592 -1.84168,2.1847 -3.12762,2.85072 -0.90231,0.46732 -1.28753,0.54111 -3.14613,0.60264 -1.98131,0.0656 -2.1829,0.0372 -3.12502,-0.43957 z"
       id="path5293" />
    <path
       style="fill:#ffd700;fill-opacity:1;stroke-width:0.192539"
       d="m 129.74964,121.69121 c -0.75853,-0.21324 -1.18234,-0.50805 -1.99832,-1.39011 -1.3329,-1.44082 -1.7466,-2.34478 -1.75197,-3.82822 -0.007,-1.87824 0.44645,-3.06188 1.62299,-4.23841 1.22359,-1.2236 2.61982,-1.73318 4.2795,-1.56188 1.1615,0.11987 2.76247,0.79454 3.63284,1.53092 1.59908,1.3529 2.29839,4.32853 1.44428,6.14556 -1.23919,2.63627 -4.45381,4.1224 -7.22932,3.34214 z m 2.79182,-7.41934 c 0,-0.1059 -0.13508,-0.19254 -0.30018,-0.19254 -0.16509,0 -0.24662,0.0866 -0.18117,0.19254 0.0654,0.10589 0.20052,0.19253 0.30017,0.19253 0.0997,0 0.18118,-0.0866 0.18118,-0.19253 z"
       id="path5332-1" />
    <path
       style="fill:#ffd700;fill-opacity:1;stroke-width:0.192539"
       d="m 109.3405,105.13286 c -0.75853,-0.21324 -1.18234,-0.50806 -1.99833,-1.39011 -1.3329,-1.44083 -1.74659,-2.34479 -1.75196,-3.828232 -0.007,-1.87824 0.44645,-3.06188 1.62298,-4.23841 1.2236,-1.2236 2.61983,-1.73318 4.27951,-1.56188 1.1615,0.11987 2.76247,0.79454 3.63284,1.53092 1.59908,1.3529 2.29839,4.32853 1.44428,6.145572 -1.23919,2.63627 -4.45381,4.1224 -7.22932,3.34214 z m 2.79181,-7.419352 c 0,-0.1059 -0.13507,-0.19254 -0.30017,-0.19254 -0.16509,0 -0.24662,0.0866 -0.18117,0.19254 0.0654,0.10589 0.20052,0.19253 0.30017,0.19253 0.0997,0 0.18117,-0.0866 0.18117,-0.19253 z"
       id="path5332-7" />
    <path
       style="fill:#ffd700;fill-opacity:1;stroke-width:0.192539"
       d="m 99.807461,118.32651 c -1.888274,-0.80486 -2.931661,-1.7263 -3.790976,-3.34792 -0.671945,-1.26803 -0.631087,-3.52842 0.09033,-4.99747 0.64168,-1.30667 1.73759,-2.34394 3.168655,-2.9991 0.91377,-0.41833 1.25098,-0.47105 2.52612,-0.39486 1.00198,0.0598 1.73547,0.22364 2.29854,0.51323 1.93519,0.99528 3.27459,2.85962 3.45083,4.80329 0.11955,1.31837 -0.0734,1.83232 -1.53907,4.10065 -0.91771,1.42025 -1.21945,1.73328 -2.08794,2.16607 -1.21448,0.6052 -2.91186,0.66957 -4.116491,0.15611 z"
       id="path5371" />
    <path
       style="fill:#ffd700;fill-opacity:1;stroke-width:0.192539"
       d="m 40.775318,97.143586 c -1.888275,-0.80486 -2.931662,-1.72631 -3.790976,-3.34792 -0.671945,-1.26803 -0.631087,-3.52843 0.09033,-4.99747 0.64168,-1.30667 1.737589,-2.34394 3.168655,-2.9991 0.91377,-0.41834 1.250977,-0.47105 2.526115,-0.39486 1.001983,0.0598 1.735471,0.22364 2.298544,0.51323 1.935187,0.99528 3.274587,2.85961 3.450833,4.80329 0.119546,1.31836 -0.07335,1.83232 -1.53907,4.10065 -0.917716,1.42025 -1.219457,1.73328 -2.087945,2.16607 -1.214475,0.6052 -2.911862,0.66956 -4.116488,0.15611 z"
       id="path5371-5" />
    <path
       style="fill:#ffd700;fill-opacity:1;stroke-width:0.192539"
       d="m 137.62249,122.36621 c -1.88827,-0.80486 -2.93166,-1.72631 -3.79098,-3.34792 -0.67194,-1.26803 -0.63108,-3.52843 0.0903,-4.99747 0.64168,-1.30667 1.73759,-2.34394 3.16866,-2.9991 0.91377,-0.41834 1.25098,-0.47105 2.52611,-0.39486 1.00199,0.0598 1.73548,0.22364 2.29855,0.51323 1.93519,0.99528 3.27459,2.85961 3.45083,4.80329 0.11955,1.31836 -0.0734,1.83232 -1.53907,4.10065 -0.91771,1.42025 -1.21946,1.73328 -2.08794,2.16607 -1.21448,0.6052 -2.91187,0.66956 -4.11649,0.15611 z"
       id="path5371-5-9" />
    <path
       style="fill:#ffd700;fill-opacity:1;stroke-width:0.192539"
       d="m 38.657387,111.96909 c -1.888275,-0.80485 -2.931662,-1.7263 -3.790976,-3.34792 -0.671945,-1.26803 -0.631087,-3.52842 0.09033,-4.99747 0.64168,-1.30666 1.737589,-2.34393 3.168655,-2.99909 0.91377,-0.41834 1.250977,-0.47105 2.526115,-0.39487 1.001983,0.0598 1.735471,0.22364 2.298544,0.51323 1.935187,0.99528 3.274587,2.85962 3.450833,4.80329 0.119546,1.31837 -0.07335,1.83232 -1.53907,4.10066 -0.917716,1.42025 -1.219457,1.73328 -2.087945,2.16606 -1.214475,0.6052 -2.911862,0.66957 -4.116488,0.15611 z"
       id="path5371-4" />
    <path
       style="fill:#ffd700;fill-opacity:1;stroke-width:0.192539"
       d="m 88.402958,117.34815 c -1.2167,-0.45121 -1.886848,-0.9116 -2.802895,-1.92555 -0.966813,-1.07014 -1.318308,-1.83228 -1.434127,-3.10955 -0.140077,-1.5448 0.361711,-3.03799 1.414375,-4.20881 2.293926,-2.5514 6.873327,-2.84207 9.812966,-0.62286 1.348994,1.01838 2.272186,2.85418 2.272186,4.5183 0,2.17752 -1.241032,3.94195 -3.52477,5.0113 -1.659228,0.77693 -4.156283,0.92366 -5.737735,0.33717 z"
       id="path5449" />
    <path
       style="fill:#ffd700;fill-opacity:1;stroke-width:0.192539"
       d="m 120.98451,120.81786 c -3.09033,-1.13395 -4.37801,-2.70737 -4.37801,-5.34949 0,-4.89625 6.14182,-7.43267 9.92793,-4.1 1.29533,1.14019 1.86509,2.42456 1.86509,4.20431 0,1.73531 -0.4188,2.74138 -1.57659,3.78737 -1.71832,1.5524 -4.01666,2.12627 -5.83842,1.45781 z"
       id="path5488" />
    <path
       style="fill:#0057b7;fill-opacity:1;stroke-width:0.192539"
       d="m 125.85883,65.746234 c -2.20891,-0.52496 -4.43169,-2.47864 -4.98482,-4.38134 -0.76089,-2.61736 0.67914,-5.41774 3.44913,-6.70742 0.78345,-0.36477 1.32142,-0.46607 2.48286,-0.46755 1.62957,-0.002 3.22194,0.27608 4.07482,0.71175 0.932,0.4761 2.24885,1.82062 2.78217,2.84062 0.67817,1.29701 0.72265,3.4536 0.0957,4.63732 -0.47145,0.89006 -1.82825,2.20734 -2.78156,2.70056 -1.46049,0.7556 -3.58059,1.0315 -5.11826,0.66606 z"
       id="path5716-3" />
    <path
       style="fill:#0057b7;fill-opacity:1;stroke-width:0.192539"
       d="m 57.634233,61.185782 c -1.111152,-0.394527 -2.038205,-1.228869 -2.685536,-2.416963 -0.760447,-1.395708 -0.923846,-3.882691 -0.341582,-5.198994 0.904066,-2.043791 2.698924,-3.244242 4.853071,-3.245868 1.832741,-0.0014 2.979415,0.467873 4.280431,1.751689 0.876367,0.864782 1.157809,1.300987 1.418919,2.199173 0.758377,2.608728 -0.500016,5.363352 -3.026996,6.6261 -0.978959,0.489192 -1.402261,0.588635 -2.452102,0.576059 -0.697887,-0.0084 -1.618679,-0.139399 -2.046205,-0.291196 z"
       id="path5755" />
    <path
       style="fill:#0057b7;fill-opacity:1;stroke-width:0.192539"
       d="m 80.721454,63.184261 c -1.563308,-0.503569 -3.487427,-2.583845 -3.94121,-4.261068 -0.738522,-2.729643 1.109867,-6.073766 3.958441,-7.161646 1.080156,-0.412515 3.349437,-0.315066 4.313418,0.185229 1.878135,0.974733 3.283679,3.022495 3.443807,5.017341 0.08731,1.087724 0.0384,1.263895 -0.792144,2.851647 -1.070216,2.045976 -1.741997,2.955661 -2.454955,3.324346 -0.624049,0.322708 -3.573303,0.351469 -4.527357,0.04415 z m 2.28697,-7.403232 c -0.132371,-0.05342 -0.348978,-0.05342 -0.481348,0 -0.13237,0.05342 -0.02406,0.09711 0.240674,0.09711 0.264741,0 0.373044,-0.0437 0.240674,-0.09711 z"
       id="path5794" />
    <path
       style="fill:#0057b7;fill-opacity:1;stroke-width:0.192539"
       d="m 47.384867,60.241906 c -3.807565,-1.066125 -5.823284,-4.217321 -4.755016,-7.433572 0.479029,-1.442224 2.08467,-3.0352 3.653157,-3.624344 3.234987,-1.215102 7.046646,-0.355238 8.763675,1.976978 2.128815,2.891537 1.060149,6.837634 -2.355776,8.698815 -0.856262,0.466539 -1.278542,0.563648 -2.654806,0.610505 -1.022137,0.0348 -2.017528,-0.05094 -2.651234,-0.228382 z"
       id="path5950" />
    <path
       style="fill:#0057b7;fill-opacity:1;stroke-width:0.192539"
       d="m 69.812764,63.031372 c -2.233436,-0.39133 -4.739589,-2.157001 -5.642269,-3.975173 -0.587181,-1.182695 -0.502828,-3.343683 0.181907,-4.660197 1.462306,-2.811524 4.541342,-4.361573 7.664709,-3.858569 2.483942,0.400027 4.388867,1.733623 5.394662,3.776682 0.541721,1.100392 0.629085,1.479636 0.630185,2.735601 0.0016,1.808356 -0.553656,2.997484 -2.01174,4.308425 -1.567893,1.409671 -3.99452,2.062721 -6.217454,1.673231 z"
       id="path5989" />
    <path
       style="fill:#ffd700;fill-opacity:1;stroke-width:0.192539"
       d="m 101.50177,89.835231 c -4.209736,-1.510326 -5.455486,-6.236184 -2.522276,-9.568489 1.910126,-2.170017 4.534996,-2.896766 7.305876,-2.022775 3.63468,1.146453 5.45856,4.602894 4.20159,7.96245 -0.51555,1.377922 -1.68413,2.675632 -2.98055,3.309915 -1.43565,0.702395 -4.48441,0.864311 -6.00464,0.318899 z"
       id="path6028" />
    <path
       style="fill:#ffd700;fill-opacity:1;stroke-width:0.192539"
       d="m 77.250688,87.233339 c -4.20974,-1.510325 -5.455488,-6.236184 -2.52227,-9.568488 1.91012,-2.170018 4.535,-2.896767 7.30587,-2.022776 3.63468,1.146453 5.45856,4.602894 4.20159,7.962451 -0.51555,1.377921 -1.68413,2.675631 -2.98055,3.309914 -1.43565,0.702395 -4.48441,0.864311 -6.00464,0.318899 z"
       id="path6028-7" />
    <path
       style="fill:#ffd700;fill-opacity:1;stroke-width:0.192539"
       d="m 102.07674,105.31584 c -2.912363,-0.95157 -4.435035,-3.08942 -4.250331,-5.967496 0.108896,-1.696827 0.641864,-2.750254 1.993312,-3.93985 1.159299,-1.020453 2.438629,-1.440457 4.095289,-1.344485 4.91177,0.284546 7.26428,5.932574 3.98357,9.563941 -1.38559,1.53368 -3.98621,2.28766 -5.82184,1.68789 z"
       id="path6178" />
    <path
       style="fill:#ffd700;fill-opacity:1;stroke-width:0.192539"
       d="m 123.01065,91.570481 c -2.91236,-0.95157 -4.43503,-3.089422 -4.25033,-5.967494 0.1089,-1.696827 0.64186,-2.750254 1.99332,-3.93985 1.15929,-1.020453 2.43862,-1.440457 4.09528,-1.344485 4.91177,0.284546 7.26428,5.932574 3.98357,9.563939 -1.38559,1.53368 -3.98621,2.28766 -5.82184,1.68789 z"
       id="path6178-1" />
    <path
       style="fill:#ffd700;fill-opacity:1;stroke-width:0.192539"
       d="m 51.001026,99.079506 c -2.91236,-0.951578 -4.43504,-3.089422 -4.25033,-5.967496 0.10889,-1.696828 0.64186,-2.750254 1.99331,-3.93985 1.15929,-1.020454 2.43862,-1.440458 4.09529,-1.344485 4.91177,0.284546 7.26428,5.932574 3.98356,9.563933 -1.38559,1.533683 -3.9862,2.287668 -5.82183,1.687898 z"
       id="path6178-8" />
    <path
       style="fill:#ffd700;fill-opacity:1;stroke-width:0.192539"
       d="m 61.205598,100.0422 c -2.91236,-0.951576 -4.43504,-3.08942 -4.25033,-5.967494 0.10889,-1.696828 0.64186,-2.750254 1.99331,-3.93985 1.15929,-1.020454 2.43862,-1.440458 4.09529,-1.344485 4.91177,0.284546 7.26428,5.932574 3.98356,9.563933 -1.38559,1.533683 -3.9862,2.287666 -5.82183,1.687896 z"
       id="path6178-8-7" />
    <path
       style="fill:#ffd700;fill-opacity:1;stroke-width:0.192539"
       d="m 71.987788,101.96759 c -2.91236,-0.95157 -4.43504,-3.089418 -4.25033,-5.967492 0.10889,-1.696828 0.64186,-2.750254 1.99331,-3.93985 1.15929,-1.020454 2.43862,-1.440458 4.09529,-1.344485 4.91177,0.284546 7.26428,5.932574 3.98356,9.563937 -1.38559,1.53368 -3.9862,2.28766 -5.82183,1.68789 z"
       id="path6178-8-7-4" />
    <path
       style="fill:#ffd700;fill-opacity:1;stroke-width:0.192539"
       d="m 59.665285,112.94232 c -2.91236,-0.95157 -4.43504,-3.08942 -4.25033,-5.96749 0.10889,-1.69683 0.64186,-2.75026 1.99331,-3.93985 1.15929,-1.02046 2.43862,-1.44046 4.09529,-1.34449 4.91177,0.28455 7.26428,5.93258 3.98356,9.56394 -1.38559,1.53368 -3.9862,2.28766 -5.82183,1.68789 z"
       id="path6178-8-7-5" />
    <path
       style="fill:#ffd700;fill-opacity:1;stroke-width:0.192539"
       d="m 78.050544,115.69495 c -1.489832,-0.60508 -3.001504,-2.15459 -3.363568,-3.44775 -0.360976,-1.28929 -0.162056,-2.95505 0.497632,-4.16712 2.21452,-4.0688 8.513576,-3.71688 10.456464,0.58418 0.543512,1.20319 0.542872,3.24121 -0.0016,4.36545 -1.25536,2.59324 -4.747136,3.81952 -7.58916,2.66524 z"
       id="path6256" />
    <path
       style="fill:#ffd700;fill-opacity:1;stroke-width:0.192539"
       d="m 140.04814,107.22323 c -1.48983,-0.60509 -3.00151,-2.15459 -3.36357,-3.44775 -0.52945,-1.89102 0.19762,-4.450191 1.59942,-5.629727 1.25308,-1.054392 2.03425,-1.319912 3.88208,-1.319496 1.50466,3.44e-4 1.85962,0.06768 2.69554,0.511472 2.08863,1.108808 3.16844,2.836331 3.16844,5.069011 0,1.70342 -0.41036,2.64237 -1.62031,3.70741 -1.80369,1.58767 -4.16824,1.99991 -6.3616,1.10908 z"
       id="path6295" />
    <path
       style="fill:#ffd700;fill-opacity:1;stroke-width:0.192539"
       d="m 125.21425,106.41154 c -1.48983,-0.60509 -3.0015,-2.15459 -3.36357,-3.44775 -0.52945,-1.89102 0.19762,-4.450189 1.59943,-5.629729 1.25307,-1.05439 2.03424,-1.31991 3.88207,-1.3195 1.50466,3.5e-4 1.85962,0.0677 2.69554,0.51148 2.08863,1.1088 3.16844,2.83633 3.16844,5.068999 0,1.70343 -0.41036,2.64238 -1.62031,3.70742 -1.80369,1.58766 -4.16824,1.9999 -6.3616,1.10908 z"
       id="path6295-5" />
    <path
       style="fill:#ffd700;fill-opacity:1;stroke-width:0.192539"
       d="m 82.278027,102.17569 c -1.48983,-0.60509 -3.00151,-2.15459 -3.36357,-3.447754 -0.52945,-1.89102 0.19762,-4.450204 1.59942,-5.629734 1.25308,-1.05439 2.03425,-1.31991 3.88208,-1.3195 1.50466,3.5e-4 1.85962,0.0677 2.69554,0.51147 2.08863,1.10881 3.16844,2.836344 3.16844,5.069014 0,1.70343 -0.41036,2.642384 -1.62031,3.707424 -1.80369,1.58766 -4.16824,1.9999 -6.3616,1.10908 z"
       id="path6295-4" />
    <path
       style="fill:#ffd700;fill-opacity:1;stroke-width:0.192539"
       d="m 91.32737,103.13838 c -1.48983,-0.60509 -3.00151,-2.15459 -3.36357,-3.44775 -0.52945,-1.89102 0.19762,-4.450204 1.59942,-5.629734 1.25308,-1.05439 2.03425,-1.31991 3.88208,-1.3195 1.50466,3.5e-4 1.85962,0.0677 2.69554,0.51147 2.08863,1.10881 3.16844,2.836344 3.16844,5.069014 0,1.70343 -0.41036,2.64238 -1.62031,3.70742 -1.80369,1.58766 -4.16824,1.9999 -6.3616,1.10908 z"
       id="path6295-4-8" />
    <path
       style="fill:#ffd700;fill-opacity:1;stroke-width:0.192539"
       d="m 68.222677,114.49819 c -1.48983,-0.60509 -3.00151,-2.15459 -3.36357,-3.44775 -0.52945,-1.89102 0.19762,-4.45021 1.59942,-5.62974 1.25308,-1.05439 2.03425,-1.31991 3.88208,-1.3195 1.50466,3.5e-4 1.85962,0.0677 2.69554,0.51147 2.08863,1.10881 3.16844,2.83635 3.16844,5.06902 0,1.70343 -0.41036,2.64238 -1.62031,3.70742 -1.80369,1.58766 -4.16824,1.9999 -6.3616,1.10908 z"
       id="path6295-4-0-4" />
    <path
       style="fill:#ffd700;fill-opacity:1;stroke-width:0.192539"
       d="m 48.776224,112.18772 c -1.48983,-0.60509 -3.00151,-2.15459 -3.36357,-3.44775 -0.52945,-1.89102 0.19762,-4.4502 1.59942,-5.62973 1.25308,-1.05439 2.03425,-1.31991 3.88208,-1.3195 1.50466,3.5e-4 1.85962,0.0677 2.69554,0.51147 2.08863,1.10881 3.16844,2.83634 3.16844,5.06901 0,1.70343 -0.41036,2.64238 -1.62031,3.70742 -1.80369,1.58766 -4.16824,1.9999 -6.3616,1.10908 z"
       id="path6295-4-6" />
    <path
       style="fill:#ffd700;fill-opacity:1;stroke-width:0.192539"
       d="m 54.359861,84.077011 c -1.48983,-0.60509 -3.00151,-2.15459 -3.36357,-3.44775 -0.52945,-1.89102 0.19762,-4.4502 1.59942,-5.62973 1.25308,-1.05439 2.03425,-1.319913 3.88208,-1.319503 1.50466,3.5e-4 1.85962,0.0677 2.69554,0.511473 2.08863,1.10881 3.16844,2.83634 3.16844,5.06901 0,1.70343 -0.41036,2.64238 -1.62031,3.70742 -1.80369,1.58766 -4.16824,1.9999 -6.3616,1.10908 z"
       id="path6295-4-6-6" />
    <path
       style="fill:#0057b7;fill-opacity:1;stroke-width:0.192539"
       d="m 133.83058,79.034835 c -2.05206,-0.42933 -3.9081,-1.79433 -4.8318,-3.55349 -0.43429,-0.8271 -0.50995,-1.21277 -0.51225,-2.61141 -0.002,-1.53234 0.0396,-1.70695 0.6366,-2.63725 1.78244,-2.77769 4.73109,-4.01577 7.73271,-3.24679 3.48267,0.89222 5.86646,4.22182 5.21094,7.27844 -0.57788,2.69453 -3.01423,4.56494 -6.31272,4.84631 -0.60993,0.052 -1.47549,0.0179 -1.92348,-0.0758 z"
       id="path4870-4-6-8" />
    <path
       style="fill:#ffd700;fill-opacity:1;stroke-width:0.192539"
       d="m 118.00463,106.58854 c -2.91236,-0.95158 -4.43504,-3.08943 -4.25033,-5.9675 0.10889,-1.696831 0.64186,-2.750257 1.99331,-3.939853 1.15929,-1.020454 2.43862,-1.440458 4.09529,-1.344485 4.91177,0.284546 7.26428,5.932578 3.98356,9.563938 -1.38559,1.53368 -3.9862,2.28767 -5.82183,1.6879 z"
       id="path6178-8-7-7" />
  </g>
  <metadata
     id="metadata12536">
    <rdf:RDF>
      <cc:Work
         rdf:about="">
        <dc:title>Liczydło</dc:title>
      </cc:Work>
    </rdf:RDF>
  </metadata>
</svg>
