<svg preserveAspectRatio="xMidYMid meet" data-bbox="20 42.499 160 115.001" viewBox="20 42.499 160 115.001" height="200" width="200" xmlns="http://www.w3.org/2000/svg" data-type="color" role="img" aria-labelledby="comp-k02hzxtj-svgtitle"><title id="comp-k02hzxtj-svgtitle">Hedgehog Icon</title>
    <g>
        <path d="M154.714 122.474l-23.123-56.96c-.429-1.058-1.92-1.075-2.374-.027l-10.919 25.216S96.822 36.506 94.955 43.047s-7.47 41.115-7.47 41.115-14.006-24.295-14.94-22.426-.934 19.623-.934 19.623S29.594 64.54 29.594 68.277c0 3.738 20.542 36.443 20.542 36.443s-23.343 9.344-25.211 12.148 25.211 7.475 25.211 7.475-26.144 22.426-29.879 28.033 34.548-7.475 34.548-7.475 12.139 8.41 28.012 11.213c15.873 2.803 44.819.934 57.891-1.869 9.72-2.084 18.423-1.785 24.277-3.738 8.404-2.803 22.41-8.41 10.271-11.213-12.139-2.804-20.542-16.82-20.542-16.82z" fill="#4692D8" data-color="1"></path>
        <path d="M151.894 132.932c-1.112-1.705-3.47-3.003-5.513-2.312-2.515.851-3.491 3.355-1.952 5.558 1.347 1.928 3.965 2.231 6.073 1.642.85-.298 1.835-.678 2.17-1.599.38-1.041-.21-2.418-.778-3.289z" fill="#213472" data-color="2"></path>
        <path d="M99.329 69.659c.786 2.648 2.117 5.113 2.503 7.873.078.558 1.935.434 1.867-.052-.387-2.764-1.716-5.222-2.503-7.873-.171-.576-1.987-.355-1.867.052z" fill="#FFCFAE" data-color="3"></path>
        <path d="M99.38 87.555c-.46-2.208-.312-4.478-.696-6.696-.104-.602-1.917-.657-1.849-.264.396 2.288.259 4.623.734 6.903.102.487 1.934.646 1.811.057z" fill="#FFCFAE" data-color="3"></path>
        <path d="M110.107 86.141c-.09-.489-1.919-.685-1.809-.093.751 4.069 1.34 8.241 3.576 11.81.299.477 2.046.471 1.809.093-2.235-3.568-2.824-7.742-3.576-11.81z" fill="#FFCFAE" data-color="3"></path>
        <path d="M131.189 80.121c-1.067 1.999-1.525 4.207-1.788 6.442-.067.571 1.745.968 1.8.497.263-2.234.721-4.442 1.788-6.442.206-.386-1.518-1.025-1.8-.497z" fill="#FFCFAE" data-color="3"></path>
        <path d="M137.999 95.468c-.168-.508-1.978-.655-1.807-.137.783 2.366 1.549 4.736 2.146 7.157.124.503 1.944.695 1.807.137-.597-2.421-1.363-4.791-2.146-7.157z" fill="#FFCFAE" data-color="3"></path>
        <path d="M125.839 96.893a26.952 26.952 0 0 0 0 11.556c.116.528 1.885.901 1.771.382a26.383 26.383 0 0 1 0-11.347c.123-.547-1.663-1.074-1.771-.591z" fill="#FFCFAE" data-color="3"></path>
        <path d="M100.799 97.398c-.241-.459-2.054-.211-1.787.296.944 1.798 1.722 3.678 2.861 5.368.302.449 2.084.144 1.787-.296-1.139-1.69-1.917-3.57-2.861-5.368z" fill="#FFCFAE" data-color="3"></path>
        <path d="M78.636 84.854c.271.446 2.066.105 1.771-.38-1.332-2.193-2.276-4.589-3.576-6.799-.263-.447-2.062-.113-1.771.38 1.301 2.21 2.245 4.605 3.576 6.799z" fill="#FFCFAE" data-color="3"></path>
        <path d="M87.891 91.916c.04 1.921-.406 3.805-.358 5.726.013.498 1.872.368 1.858-.191-.048-1.921.398-3.805.357-5.726-.01-.497-1.869-.369-1.857.191z" fill="#FFCFAE" data-color="3"></path>
        <path d="M80.802 94.895c-.75-1.755-1.443-3.535-2.552-5.103-.303-.429-2.072.019-1.747.479 1.07 1.513 1.731 3.224 2.455 4.917.235.55 2.013.103 1.844-.293z" fill="#FFCFAE" data-color="3"></path>
        <path d="M67.549 91.364c-.962-2.019-1.205-4.198-1.755-6.342-.149-.58-1.974-.417-1.867-.002.566 2.21.83 4.461 1.821 6.541.225.472 2.045.316 1.801-.197z" fill="#FFCFAE" data-color="3"></path>
        <path d="M48.806 82.73c.429.203 2.221-.017 1.357-.427-2.374-1.126-4.452-2.704-6.297-4.566-.347-.35-2.139-.253-1.636.254 1.92 1.938 4.106 3.568 6.576 4.739z" fill="#FFCFAE" data-color="3"></path>
        <path d="M49.134 89.959c-.294.2-.143.427.159.59 1.604.866 3.041 2.002 4.649 2.863.276.148.946.482 1.256.271.293-.2.144-.428-.159-.59-1.608-.86-3.044-1.997-4.649-2.863-.276-.149-.947-.482-1.256-.271z" fill="#FFCFAE" data-color="3"></path>
        <path d="M63.971 104.948a6.209 6.209 0 0 1-.68-3.838c.063-.464-1.789-.546-1.867.03-.192 1.415.08 2.779.75 4.035.249.467 2.059.264 1.797-.227z" fill="#FFCFAE" data-color="3"></path>
        <path d="M73.625 107.688c-.84-2.45-.817-5.248-2.146-7.515-.286-.489-2.007-.604-1.795-.243 1.329 2.267 1.305 5.065 2.146 7.515.177.518 1.963.731 1.795.243z" fill="#FFCFAE" data-color="3"></path>
        <path d="M63.948 115.563c-2.509-1.925-5.337-3.352-7.974-5.084-.411-.27-2.139.222-1.537.617 2.563 1.684 5.322 3.065 7.761 4.936.448.344 2.086-.211 1.75-.469z" fill="#FFCFAE" data-color="3"></path>
        <path d="M45.625 115.782c-.362-.052-.986-.01-1.254.278-.277.298.137.434.39.47l2.503.358c.362.052.986.01 1.254-.278.277-.298-.137-.434-.391-.47l-2.502-.358z" fill="#FFCFAE" data-color="3"></path>
        <path d="M58.959 127.109c-.349.304-.75.533-1.179.717l-1.838.511c-.939.161-1.903.228-2.757.331-1.255.151-.349.841.463.743 2.38-.287 5.203-.368 7.1-2.021.296-.258-1.354-.659-1.789-.281z" fill="#FFCFAE" data-color="3"></path>
        <path d="M52.406 137.663c-3.538.817-6.846 2.359-10.37 3.221-1.235.302-.188.834.593.644 3.525-.862 6.834-2.405 10.37-3.221 1.239-.286.187-.824-.593-.644z" fill="#FFCFAE" data-color="3"></path>
        <path d="M68.257 134.209c-.364-.201-.866-.297-1.271-.183-1.09.308-2.162.665-3.218 1.074-.389.15.003.469.2.578.335.185.894.329 1.272.183a36.342 36.342 0 0 1 3.218-1.074c.412-.117-.031-.484-.201-.578z" fill="#FFCFAE" data-color="3"></path>
        <path d="M79.244 121.29c-1.992-1.508-3.935-3.076-5.623-4.926-.378-.414-2.1-.045-1.787.299 1.745 1.912 3.761 3.535 5.821 5.094.393.297 2.156-.038 1.589-.467z" fill="#FFCFAE" data-color="3"></path>
        <path d="M82.482 105.27c-.348-.348-2.138-.21-1.629.3l2.503 2.505c.348.348 2.139.21 1.629-.3l-2.503-2.505z" fill="#FFCFAE" data-color="3"></path>
    </g>
</svg>