<svg height="512" viewBox="0 0 54 58" width="512" xmlns="http://www.w3.org/2000/svg"><g id="Page-1" fill="none" fill-rule="evenodd"><g id="001---Polar-Bear" fill-rule="nonzero" transform="translate(0 -1)"><path id="Shape" d="m46.37 13.94c3.1676571-.4238257 5.5572584-3.0874818 5.6360211-6.28239588.0787627-3.1949141-2.1766839-5.9730823-5.319609-6.55247982-3.1429251-.57939753-6.240751 1.21189609-7.3064121 4.2248757h-24.76c-1.0656611-3.01297961-4.163487-4.80427323-7.30641209-4.2248757-3.1429251.57939752-5.39837175 3.35756572-5.31960906 6.55247982.0787627 3.19491408 2.46836406 5.85857018 5.63602115 6.28239588z" fill="#84b5cb"/><path id="Shape" d="m44.51 49.61c1.4437476.782166 2.3842105 2.2514032 2.49 3.89 0 3.04-3.81 5.5-8.5 5.5-3.95 0-7.27-1.74-8.22-4.1h-6.56c-.95 2.36-4.27 4.1-8.22 4.1-4.69 0-8.5-2.46-8.5-5.5.10578953-1.6385968 1.04625242-3.107834 2.49-3.89z" fill="#84b5cb"/><path id="Shape" d="m53.44 38.15c-.8903754 2.042616-2.7670768 3.4850706-4.97 3.82-.1039755.0077681-.2074582.0211207-.31.04-1.66 7.78-6.58 12.99-21.16 12.99-13.39 0-18.63-4.4-20.68-11.14-.19-.6-.34-1.22-.48-1.85-.10254182-.0188793-.20602449-.0322319-.31-.04-.83298252-.1145219-1.63316404-.4005443-2.35-.84-1.15976263-.6993602-2.07489503-1.740236-2.62-2.98-.78976167-1.9771925-.73920336-4.1909241.14-6.13 1.04110172-1.9875413 2.52202765-3.711298 4.33-5.04.4-13.93 6.53-24.98 21.97-24.98s21.57 11.04 21.97 24.98v.01c1.8093931 1.3230518 3.290796 3.0439425 4.33 5.03.8792034 1.9390759.9297617 4.1528075.14 6.13z" fill="#90bae1"/><path id="Shape" d="m49.52 38.47c-.4993271 1.3917063-1.4921071 2.5517289-2.79 3.26-.1-.02-.21-.05-.31-.08-1.0959606-.2777833-2.0140543-1.0239631-2.51-2.04-.1298693-.342728-.4368224-.586951-.7999685-.6364837-.363146-.0495327-.7242929.1035621-.9412058.3989895-.216913.2954273-.2548331.6858464-.0988257 1.0174942.5470728 1.2343773 1.5296048 2.2240291 2.76 2.78-1.57 7.12-5.91 11.83-17.83 11.83s-16.26-4.71-17.83-11.83c1.2330137-.5556117 2.2188352-1.5449921 2.77-2.78.1560074-.3316478.1180873-.7220669-.0988257-1.0174942-.2169129-.2954274-.5780598-.4485222-.9412058-.3989895-.3631461.0495327-.6700992.2937557-.7999685.6364837-.4959457 1.0160369-1.41403942 1.7622167-2.51 2.04-.11.03-.21.06-.32.08-1.29789289-.7082711-2.29067295-1.8682937-2.79-3.26-.67587531-1.9572905-.63333894-4.0911988.12-6.02.84779233-1.9003144 2.10833099-3.5878648 3.69-4.94.34-13.67 5.56-24.51 18.71-24.51s18.37 10.83 18.71 24.51v.01c1.5856335 1.3444204 2.8470352 3.0297079 3.69 4.93.7533389 1.9288012.7958753 4.0627095.12 6.02z" fill="#b0d3f0"/><circle id="Oval" cx="18" cy="20" fill="#fff" r="3"/><circle id="Oval" cx="18" cy="20" fill="#35495e" r="2"/><path id="Shape" d="m30.68 23.53c3.14.93 5.32 3.03 5.32 5.47 0 3.31-2 6-9 6s-9-2.69-9-6c0-2.44 2.18-4.54 5.32-5.47z" fill="#fff"/><path id="Shape" d="m29 32h-4c-.5522847 0-1-.4477153-1-1s.4477153-1 1-1h1v-3c0-.5522847.4477153-1 1-1s1 .4477153 1 1v3h1c.5522847 0 1 .4477153 1 1s-.4477153 1-1 1z" fill="#2c3e50"/><g fill="#285680"><path id="Shape" d="m14 16c-.2651948-.0000566-.5195073-.1054506-.707-.293l-1-1c-.3789722-.3923789-.3735524-1.0160848.0121814-1.4018186s1.0094397-.3911536 1.4018186-.0121814l1 1c.2859079.2859943.3714219.7160366.216678 1.0896546-.1547439.3736179-.5192821.6172591-.923678.6173454z"/><path id="Shape" d="m17 15c-.3808256.0020788-.7297741-.2123306-.9-.553l-1-2c-.2468712-.4942948-.0462948-1.0951287.448-1.342.4942949-.2468712 1.0951287-.0462948 1.342.448l1 2c.1545455.3092668.1383796.6764236-.0427493.9709106-.1811288.294487-.5015228.4745236-.8472507.4760894z"/><path id="Shape" d="m40 16c-.4043959-.0000863-.7689341-.2437275-.923678-.6173454-.1547439-.373618-.0692299-.8036603.216678-1.0896546l1-1c.3923789-.3789722 1.0160848-.3735524 1.4018186.0121814s.3911536 1.0094397.0121814 1.4018186l-1 1c-.1874927.1875494-.4418052.2929434-.707.293z"/><path id="Shape" d="m37 15c-.3464401-.000185-.6681037-.1796678-.8501945-.4743943-.1820909-.2947265-.1986643-.6627032-.0438055-.9726057l1-2c.1596977-.3197527.4778505-.5300187.8346134-.5515927.3567628-.0215741.6979349.1488213.895.447.1970651.2981786.2200843.67884.0603866.9985927l-1 2c-.1695854.3393743-.5166139.553556-.896.553z"/></g><ellipse id="Oval" cx="27" cy="24.5" fill="#35495e" rx="4" ry="2.5"/><circle id="Oval" cx="17" cy="19" fill="#fff" r="1"/><circle id="Oval" cx="36" cy="20" fill="#fff" r="3"/><circle id="Oval" cx="36" cy="20" fill="#35495e" r="2"/><circle id="Oval" cx="35" cy="19" fill="#fff" r="1"/></g></g></svg>