<svg preserveAspectRatio="xMidYMid meet" data-bbox="20 27.997 160 144.001" viewBox="20 27.997 160 144.001" height="200" width="200" xmlns="http://www.w3.org/2000/svg" data-type="color" role="img" aria-labelledby="comp-k03hgg90-svgtitle"><title id="comp-k03hgg90-svgtitle">Squirrel</title>
    <g>
        <path d="M48.02 109.609c-7.142-6.578-18.661-4.187-26.119 1.557.036 5.664 3.553 11.162 6.99 15.218 2.911 3.435 4.736 5.79 8.543 6.91 6.725 1.98 13.126-15.339 11.264-22.632" fill="#FFCFAE" data-color="1"></path>
        <path d="M49.178 109.143c-4.959-4.471-11.977-4.9-18.178-3.164a30.1 30.1 0 0 0-8.971 4.225c-.577.398-1.332.729-1.367 1.475-.047 1.002.158 2.072.375 3.046.427 1.916 1.178 3.749 2.098 5.479 1.759 3.307 4.147 6.226 6.625 9.017 1.939 2.184 4.371 4.298 7.361 4.802 4.651.783 7.965-3.827 9.768-7.401 1.361-2.697 2.326-5.615 2.896-8.579.48-2.497.765-5.211.154-7.712-.186-.762-2.677-.126-2.484.664.685 2.806.242 5.844-.403 8.615-.742 3.187-1.902 6.376-3.649 9.158-.71 1.13-1.524 2.244-2.55 3.11-.663.56-1.307.98-2.032.923-1.747-.137-3.578-1.433-4.838-2.559-1.577-1.41-2.919-3.093-4.265-4.716-3.443-4.152-6.47-9.153-6.578-14.691l-.26.485c6.785-5.162 17.079-7.464 23.978-1.244.598.535 2.911-.401 2.32-.933z" fill="#FFCFAE" data-color="1"></path>
        <path d="M24.199 107.714c-5.604 2.233-5.807 10.4.656 6.19 4.05-2.639 7.616-3.771 12.6-3.842 2.476-.035 5.731-.093 8.338.07 3.806.239 5.209-2.695 1.326-3.944-.001 0-12.269-2.717-22.92 1.526z" fill="#F97338" data-color="2"></path>
        <path d="M33.22 107.145c-.444-.561-.792-1.272-1.086-1.921-.618-1.36-1.42-2.681-2.22-3.95l-.08-.127c-.969-1.533-2.383-2.809-3.25-4.352.452-.2 1.03-.246 1.519-.359.305-.071 2.58-.771 2.674-.584.243.485 1.417 6.233 2.26 8.018.488 1.033 1.136 1.994 1.353 3.142-.382.071-.775.118-1.162.175" fill="#F97338" data-color="2"></path>
        <path d="M28.009 116.566a2.252 2.252 0 0 0 .031 1.833c.267.584.702 1.081 1.176 1.508.113.102.319.115.459.114.221-.002.477-.056.68-.142.16-.068.761-.369.485-.617a5.289 5.289 0 0 1-.894-1.013l.057.09c-.269-.422-.448-.89-.435-1.395l-.005.107c.013-.257.074-.5.176-.736.053-.123-.07-.221-.164-.261-.161-.068-.4-.058-.565-.031-.339.055-.848.191-1.001.543z" fill="#213472" data-color="3"></path>
        <path d="M33.346 113.759c.094.063-.076-.062.038.028a2.419 2.419 0 0 1 .289.268c.119.131.22.274.308.427l-.063-.111c.204.369.309.776.316 1.197l-.001-.128c.001.318-.054.629-.163.929-.049.136.076.267.181.323.16.085.403.092.575.067.371-.053.845-.214.985-.599a2.837 2.837 0 0 0 .051-1.773c-.192-.626-.599-1.12-1.137-1.481-.141-.095-.421-.085-.575-.067a1.591 1.591 0 0 0-.658.224c-.127.085-.307.21-.327.375-.019.154.055.236.181.321z" fill="#213472" data-color="3"></path>
        <path d="M34.044 122.113c.73.891 1.009 2.109.652 3.211-.112.346.555.314.728.286a1.92 1.92 0 0 0 .66-.216c.13-.077.292-.172.341-.325.407-1.256.069-2.592-.756-3.599-.086-.105-.348-.112-.458-.111a1.914 1.914 0 0 0-.68.142c-.2.086-.717.331-.487.612z" fill="#213472" data-color="3"></path>
        <path d="M39.105 117.171c-.964 1.662-.169 3.617.826 5.06.245.355.845.339 1.188.154.326-.176.657-.564.399-.937-.455-.659-.781-1.245-.976-2.012a4.326 4.326 0 0 1-.104-.582 3.46 3.46 0 0 1 .007-.433 2.767 2.767 0 0 1 .069-.428 3.168 3.168 0 0 1 .265-.586c.217-.375-.196-.74-.543-.779-.463-.052-.899.143-1.131.543z" fill="#213472" data-color="3"></path>
        <path d="M43.236 113.002c.218.174.404.378.547.619l-.063-.111c.175.309.264.648.27 1.003l-.001-.127a2.498 2.498 0 0 1-.2.981c-.025.057-.023.054.006-.009l-.039.08a3.498 3.498 0 0 1-.086.159c-.069.122-.096.253.005.369.104.118.327.159.471.161a1.61 1.61 0 0 0 .682-.134c.168-.077.37-.179.464-.345.319-.561.495-1.173.423-1.82-.067-.594-.404-1.141-.867-1.511-.313-.249-.81-.185-1.154-.027-.167.077-.371.179-.464.345-.059.105-.113.272.006.367z" fill="#213472" data-color="3"></path>
        <path d="M38.629 127.312c.111.093.21.196.296.313l-.053-.072c.219.311.317.681.283 1.059l.01-.088c-.031.283-.134.53-.285.769.061-.097.003-.006-.012.012-.021.027-.044.052-.067.078-.045.049-.147.114-.176.17l.064-.052a2.218 2.218 0 0 1-.15.107l-.064.04.097-.056c-.047.014-.096.049-.141.07-.101.047-.309.164-.351.287-.039.113.048.181.15.209.387.105.871-.047 1.219-.21.657-.307 1.296-.854 1.423-1.604a1.712 1.712 0 0 0-.607-1.639c-.104-.087-.33-.079-.448-.073a2.25 2.25 0 0 0-.678.149c-.128.048-.764.319-.51.531z" fill="#213472" data-color="3"></path>
        <path d="M58.153 68.494c2.931-1.749 4.646-2.604 4.646-2.604.508.102.987-2.954.857-7.697-.07-2.557 1.143-6.232 2.249-8.26 2.028-3.718 2.976 1.664 3.751 3.984.775 2.32 2.45 8.39 2.45 9.164 0 .773 3.876 1.547 4.651.773.775-.773 3.101-10.054 6.202-11.6 3.101-1.547 4.651-1.547 4.651 0s.444 11.378-1.55 14.694c-2.326 3.867 0 10.827 3.101 15.467 2.457 3.676 22.474 8.464 30.254 17.038 1.567 1.727 3.859 6.052 1.734.113-4.525-12.642-18.101-46.716-4.346-58.477 6.602-5.645 14.222-11.122 22.288-11.973 8.982-.947 18.463 3.291 26.614 7.908 7.1 4.022 9.127 11.585 11.104 18.603 3.544 12.578 2.206 26.975-3.926 41.481-4.606 10.896-16.279 22.428-11.628 6.187 3.223-11.253-8.043-21.719-12.694-20.946-4.651.773-10.562 5.479-7.461 15.533 3.76 12.191 11.009 31.511 4.032 47.751-2.533 5.897-3.54 12.22-6.898 16.037-5.891 6.695-12.858 10.262-25.041 8.134-15.291-2.671-46.536 5.121-44.962-1.547.953-4.037.14-6.16 2.711-7.015 5.193-1.727 5.277-2.566 10.287-2.566 5.904 0 4.024-.836 2.143-9.835-2.221-10.626-2.572-17.959-5.839-17.706-11.49.889-10.488 6.841-34.519-7.079-5.405-3.131-5.426-10.827 0-9.28 5.426 1.547 17.586 1.74 22.116.892 3.241-.606-.623-12.621-3.617-12.579-5.649.079-7.715-.855-13.437-2.888-5.704-2.026-7.506-8.507-3.63-10.827 3.876-2.319 7.985-17.464 13.707-20.88z" fill="#BFCAE4" data-color="4"></path>
        <path d="M58.72 69.285c1.427-.848 2.892-1.621 4.332-2.444.071-.04.222-.082.278-.143.224-.243-1.017.312-.411.132.164-.049.212-.04.375-.104.524-.206.845-.585 1.048-1.096.48-1.213.499-2.688.556-3.967.092-2.043-.118-4.089.275-6.107.349-1.793.955-3.606 1.811-5.224.101-.191.541-.677.561-.845.028-.232-.843.163-.835.091-.004.035.019-.194.094.122.12.504.547 1.07.721 1.588.868 2.586 1.619 5.239 2.337 7.87.332 1.218.685 2.445.921 3.686.014.072.09.486.068.377-.001-.006.069.417.181.589.285.434.875.678 1.34.846 1.245.45 2.83.691 4.13.352 1.009-.263 1.501-.894 1.885-1.802.988-2.335 1.714-4.764 2.848-7.04.509-1.023 1.105-2.232 2.033-2.948.339-.261 2.681-1.522 3.035-1.121.126.142.052.686.055.859.009.505.02 1.01.026 1.516a83.312 83.312 0 0 1-.041 4.03c-.098 2.657-.148 5.715-1.394 8.131-1.631 3.162-1.179 6.691-.066 9.969a27.777 27.777 0 0 0 2.391 5.172c.519.879 1.018 1.648 1.828 2.277 1.689 1.311 3.787 2.168 5.728 3.026 2.738 1.211 5.512 2.34 8.248 3.556 2.972 1.32 5.925 2.715 8.718 4.385 2.426 1.451 4.933 3.119 6.756 5.311.653.786 1.182 1.669 1.839 2.45.659.784 1.909 1.213 2.655.194.696-.95-.329-2.828-.653-3.735-.35-.983-.71-1.963-1.067-2.944-1.923-5.285-3.788-10.592-5.354-15.994-1.783-6.153-3.284-12.479-3.763-18.882-.404-5.398-.189-11.311 2.53-16.144 1.584-2.816 4.234-4.753 6.74-6.705 3.525-2.745 7.292-5.265 11.461-6.929 8.687-3.468 17.827-.82 25.903 3.034 3.669 1.751 7.636 3.566 10.332 6.704 2.392 2.784 3.825 6.189 4.94 9.645 1.199 3.715 2.253 7.507 2.818 11.373.635 4.348.696 8.768.297 13.142-.426 4.672-1.373 9.293-2.755 13.776-1.197 3.881-2.622 7.756-4.594 11.318-1.402 2.532-3.057 4.963-4.996 7.119-.687.764-1.418 1.494-2.248 2.104a3.8 3.8 0 0 1-.82.489s-.169-.045-.234.069c-.008.013.195-.029.09-.016.198-.024.109.158-.045-.178a5.33 5.33 0 0 1-.175-.819c-.116-1.306.203-2.698.49-3.961.418-1.84 1.025-3.6 1.125-5.5a16.604 16.604 0 0 0-.506-4.963c-.794-3.111-2.439-6.03-4.562-8.43-1.74-1.967-3.891-3.836-6.397-4.745-4.579-1.661-9.812 1.952-11.641 6.064-1.427 3.209-1.138 6.881-.159 10.171 1.006 3.383 2.144 6.726 3.138 10.113 2.313 7.884 4.159 16.083 3.801 24.348-.188 4.332-1.003 8.615-2.664 12.632-1.627 3.933-2.684 8.084-4.388 11.981-2.51 5.738-8.19 10.31-14.282 11.754-3.619.858-7.413.694-11.061.115a57.682 57.682 0 0 0-8.628-.714c-6.322-.049-12.634.571-18.925 1.109-2.859.245-5.721.49-8.588.621-2.094.096-4.231.182-6.314-.114-.753-.107-1.207-.168-1.878-.505-.246-.124-.507-.362-.562-.643-.045-.227-.016.004-.016-.127.001-.112.018-.224.038-.334.165-.925.364-1.832.483-2.765.12-.942.045-2.531.892-3.179.626-.479 1.673-.629 2.409-.904.781-.292 1.553-.607 2.332-.905a12.513 12.513 0 0 1 3.839-.829c1.903-.108 5.08.463 6.516-1.215 1.15-1.343.225-3.597-.157-5.065-1.019-3.912-1.781-7.867-2.503-11.843-.539-2.965-.897-6.202-2.183-8.963-.404-.866-.947-1.711-1.842-2.134-.9-.426-1.867-.292-2.824-.182-1.737.199-3.45.545-5.148.957-.679.165-1.356.338-2.038.492-.79.179-1.229.265-1.816.339-3.68.465-7.342-.733-10.84-2.218-3.485-1.48-6.84-3.265-10.138-5.118-2.76-1.552-5.835-3.217-6.216-6.721-.078-.713-.038-1.901.652-2.331.799-.498 2.308.224 3.158.4 3.218.667 6.538.871 9.815.99 3.163.115 6.363.128 9.514-.205 1.053-.111 2.297-.146 3.15-.85.728-.602 1.008-1.544 1.076-2.452.173-2.312-.571-4.788-1.482-6.884-.738-1.698-1.908-4.211-3.991-4.529-.821-.125-1.705-.013-2.535-.05a22.94 22.94 0 0 1-2.719-.28c-1.743-.287-3.415-.838-5.077-1.422-3.182-1.117-6.681-2.184-7.856-5.727-.374-1.127-.467-2.447.144-3.514.503-.879 1.484-1.284 2.177-1.992 1.679-1.717 2.76-4.058 3.824-6.177 1.327-2.642 2.569-5.33 4.024-7.906 1.153-2.049 2.544-4.535 4.606-5.805 1.421-.876.118-2.351-1.132-1.58-3.872 2.386-5.992 7.077-7.941 10.994-1.057 2.124-2.061 4.28-3.209 6.358-.454.822-.931 1.633-1.498 2.384a5.863 5.863 0 0 1-1.425 1.375c-4.242 2.823-2.134 8.541 1.348 10.974 1.28.894 2.734 1.373 4.191 1.894 1.449.519 2.9 1.047 4.385 1.457 1.332.368 2.68.646 4.057.78.751.073 1.506.108 2.26.129.425.012.85.014 1.275.013-.03 0 .564.039.329-.003-.123-.022-.171-.059-.04.014 1.196.669 2.037 2.53 2.564 3.863.68 1.722 1.275 3.673 1.208 5.543-.012.321-.032.664-.122.974-.034.117-.109.224-.145.34-.002.006.026-.032-.053.051.148-.154.302-.066.033-.071-.144-.003-.302.047-.445.067-.515.071-1.033.122-1.551.165-2.561.215-5.142.231-7.709.166-2.77-.07-5.55-.255-8.292-.661-2.061-.305-4.368-1.35-6.43-.665-1.911.634-2.801 2.461-2.665 4.38.159 2.243 1.429 4.297 3.131 5.722 1.299 1.088 2.919 1.838 4.392 2.659a157.12 157.12 0 0 0 4.448 2.392c2.319 1.195 4.679 2.33 7.117 3.267 2.949 1.134 6.077 1.996 9.265 1.842 2.398-.116 4.699-.84 7.028-1.353a30.108 30.108 0 0 1 4.082-.631c.408-.036.319-.098.517.025.081.05.331.243.477.42.521.629.791 1.459 1.032 2.223.829 2.634 1.231 5.411 1.724 8.121.606 3.331 1.226 6.659 2.064 9.941.364 1.426 1.188 3.287.923 4.742-.004.021-.018-.014-.013-.02.126-.139-.02-.003-.231.029-.734.111-1.852.096-2.722.106-2.575.028-4.793.552-7.171 1.49-2.118.835-5.082 1.226-5.872 3.705-.356 1.117-.4 2.314-.568 3.467-.133.908-.544 1.904-.397 2.833.161 1.017.99 1.644 1.891 2.023 1.219.512 2.617.64 3.924.711 1.937.105 3.877.055 5.813-.044 4.874-.249 9.731-.763 14.595-1.145 5.008-.393 10.072-.757 15.096-.48 2.495.137 4.921.631 7.4.896 3.01.322 6.041.302 9.025-.234 5.114-.92 9.522-3.622 13.135-7.278 2.066-2.091 3.553-4.397 4.648-7.126 1.299-3.237 2.193-6.618 3.499-9.853 1.306-3.236 2.372-6.455 2.885-9.92.495-3.34.562-6.734.334-10.1-.45-6.633-1.973-13.125-3.852-19.487-.824-2.79-1.72-5.558-2.591-8.334-.886-2.821-1.604-5.686-1.019-8.649.416-2.109 1.56-4.014 3.28-5.314a8.513 8.513 0 0 1 2.239-1.215c.692-.249 1.388-.42 1.921-.362 1.726.188 3.362 1.406 4.644 2.485 1.911 1.609 3.495 3.621 4.686 5.811 1.307 2.405 2.106 5.163 2.07 7.91-.038 2.84-1.186 5.462-1.542 8.256-.164 1.284-.351 3.221.826 4.129 1.104.852 2.652.342 3.717-.301 3.495-2.111 6.037-6.064 8.065-9.488 3.442-5.812 5.579-12.514 6.968-19.089 1.476-6.983 1.853-14.207.82-21.281-.471-3.227-1.313-6.36-2.236-9.483-.812-2.745-1.743-5.464-3.074-8.007-1.358-2.593-3.198-4.935-5.544-6.71-2.789-2.11-6.201-3.661-9.37-5.113-6.435-2.947-13.73-5.205-20.881-4.155-7.125 1.046-13.413 5.043-18.962 9.421-2.075 1.637-4.275 3.281-5.849 5.432-1.225 1.675-2.124 3.568-2.726 5.548-1.356 4.468-1.415 9.195-1.019 13.812.869 10.115 3.951 19.984 7.304 29.518a535.627 535.627 0 0 0 1.974 5.491c.266.73.532 1.46.794 2.191.233.65.467 1.301.669 1.961.059.194.088.52.197.697.192.312-.166.349.227-.156l.807-.502c.05-.017 1.13.064 1.105.182.004-.02-.095-.095-.103-.116-.042-.113-.205-.254-.282-.354-.277-.36-.536-.734-.804-1.101-.56-.767-1.15-1.48-1.822-2.152-1.753-1.751-3.785-3.193-5.9-4.474-4.564-2.763-9.5-4.846-14.4-6.93-2.013-.856-4.038-1.7-5.997-2.676-1.094-.545-2.529-1.252-3.18-2.13-1.831-2.472-3.104-5.639-3.696-8.641-.275-1.394-.385-2.843-.118-4.248.213-1.122.878-2.012 1.248-3.072 1.447-4.139 1.179-8.908 1.103-13.228-.012-.709.026-1.432-.498-1.983-.738-.777-1.967-.691-2.923-.479-2.507.555-4.44 1.834-5.764 3.997-1.224 2-2.058 4.213-2.872 6.402-.301.81-.584 1.63-.932 2.421-.304.69.04.03.088.112-.014-.024-.915-.036-1.079-.059-.471-.065-.933-.296-1.388-.355a1.076 1.076 0 0 1-.218-.11c.138.067.08.434.05.006-.005-.072-.017-.143-.027-.215-.129-.882-.385-1.756-.61-2.617-.589-2.263-1.273-4.493-1.955-6.729-.48-1.571-.834-4.611-2.618-5.305-2.651-1.031-4.033 2.998-4.643 4.768-.502 1.457-.911 2.986-1.056 4.524-.161 1.714.011 3.457-.09 5.18a23.5 23.5 0 0 1-.174 1.872c-.045.321-.274.855-.245 1.17.011.123-.045.089-.033.099-.083-.07 1.022-.466.998-.513-.044-.085-.59.149-.683.188-.259.108-.508.263-.755.394a95.738 95.738 0 0 0-3.869 2.199c-1.436.86-.126 2.335 1.135 1.586z" fill="#BFCAE4" data-color="4"></path>
        <path d="M62.429 85.097c.091-1.573 4.796-1.679 3.477 1.659-.527 1.332-2.58 1.849-3.551.84-1.128-1.173.284-2.892 1.487-2.67" fill="#213472" data-color="3"></path>
        <path d="M63.675 84.954a.837.837 0 0 1 .059-.256l-.082.193a.914.914 0 0 1 .055-.108c.03-.049.143-.187.004-.023-.139.164-.024.031.016-.007.015-.014.031-.026.045-.04.113-.106-.195.142-.15.114.039-.024.077-.052.116-.076.05-.032.169-.091-.063.03-.232.122-.114.057-.059.033l.138-.058c.157-.067-.321.106-.235.08.031-.009.061-.02.091-.028a2.86 2.86 0 0 1 .153-.039c.176-.042-.252.046-.24.045l.086-.014c.054-.008.108-.015.163-.02l.076-.006c.199-.016-.311.005-.187.007.116.001.231.006.347.015.155.012-.247-.038-.177-.024.025.005.051.008.076.012.059.01.117.022.175.037.062.015.121.035.182.053.099.029-.271-.109-.113-.039l.08.034c.116.053.225.117.328.192l-.168-.126c.164.123.301.274.403.451l-.092-.165c.13.234.188.492.194.757l-.003-.189c.003.395-.1.784-.249 1.148l.082-.193c-.06.138-.134.268-.224.389-.05.068-.147.139.055-.06-.024.024-.046.051-.069.075-.053.054-.109.103-.165.154-.131.119.24-.17.093-.07l-.085.059c-.063.042-.133.075-.196.117.014-.009.32-.154.148-.081l-.115.05-.097.038c.424-.171.274-.092.165-.06-.067.02-.134.034-.202.05.488-.121.187-.034.051-.021-.253.023.323.001.069-.002-.079-.001-.164-.02-.242-.015.022-.001.307.052.141.016l-.097-.02c-.053-.012-.289-.09-.112-.027s-.053-.029-.1-.054a1.717 1.717 0 0 1-.2-.125l.168.126a1.686 1.686 0 0 1-.465-.529l.092.165a1.388 1.388 0 0 1-.158-.608l.003.189c0-.22.048-.43.134-.633l-.082.193c.07-.155.165-.283.259-.423-.153.226-.109.125-.048.062.029-.03.058-.059.089-.087.03-.028.064-.053.094-.081-.24.226-.175.13-.091.073.034-.023.069-.044.104-.066.15-.095-.306.144-.136.071.036-.015.077-.028.11-.047-.027.015-.384.12-.174.062l.038-.01c.124-.028.05-.015-.222.041l.096-.012c.126-.018-.37-.004-.161.008.207.012-.279-.047-.107-.018.316.053.619.044.931-.039.274-.073.623-.22.826-.43.136-.141.314-.355.237-.569-.074-.206-.278-.339-.49-.374-1.135-.19-2.43.197-3.21 1.067-.525.585-.919 1.439-.564 2.216.863 1.896 3.659 1.563 5.095.594.383-.258.733-.574.986-.963.198-.305.329-.671.413-1.024.115-.486.129-1.052-.102-1.508-.555-1.095-1.842-1.347-2.97-1.292a4.51 4.51 0 0 0-2.065.626c-.452.27-.951.744-.991 1.305-.039.557.665.646 1.088.588.325-.044.666-.136.939-.323.179-.124.448-.316.465-.553z" fill="#213472" data-color="3"></path>
    </g>
</svg>