<svg preserveAspectRatio="xMidYMid meet" data-bbox="20 45.499 160 109.001" viewBox="20 45.499 160 109.001" height="200" width="200" xmlns="http://www.w3.org/2000/svg" data-type="color" role="img" aria-labelledby="comp-k03h7vdo-svgtitle"><title id="comp-k03h7vdo-svgtitle">Falling Star Icon</title>
    <g>
        <path d="M94.035 65.165l-14.836.13-9.542.084c-1.044.009-2.237-.13-3.287.019L59.085 46.94c-1.193-3.022-7.07-.689-7.954 1.513l-6.783 16.904c-5.976-.14-11.986-.209-17.921-.729-1.937-.17-7.359 1.134-6.289 4.167.955 2.708 6.565 5.363 8.735 6.946 1.989 1.451 3.969 3.193 6.103 4.423.588.339 1.339.871 1.942 1.36-1.545 3.555-4.87 7.228-6.863 10.342l-6.555 10.24c-1.489 2.327 2.41 2.865 3.666 2.624 7.892-1.514 19.868-11.427 26.318-9.251 8.646 2.918 15.86 12.119 25.118 13.492 1.68.249 7.722-1.352 6.289-4.167L73.992 83.395 94.63 69.86c2.347-1.539 3.184-4.728-.595-4.695zm-28.221.287c-.053.004-.116.014-.164.016a3.408 3.408 0 0 0-.831-.189c.023-.115.401-.172.995.173z" fill="#F97338" data-color="1"></path>
        <path d="M107.574 103.58c22.161 9.526 46.057 13.937 68.218 23.463 5.193 2.232 5.565-4.429 1.194-6.308-22.161-9.526-46.057-13.937-68.218-23.463-5.194-2.232-5.565 4.429-1.194 6.308z" fill="#BBE8F6" data-color="2"></path>
        <path d="M117.223 77.788c15.065 1.622 29.925 4.686 44.934 6.725 2.243.305 9.831-3.129 5.449-3.725-15.615-2.122-31.073-5.261-46.748-6.948-2.793-.3-9.152 3.354-3.635 3.948z" fill="#BBE8F6" data-color="2"></path>
        <path d="M104.8 123.417c8.937 11.334 20.508 20.06 30.438 30.437 1.375 1.437 1.804.204 1.971-1.041.235-1.757-1.714-4.219-2.828-5.383-9.512-9.94-20.634-18.272-29.193-29.126-.935-1.186-1.937-1.792-2.624-.358-.671 1.401 1.465 4.493 2.236 5.471z" fill="#BBE8F6" data-color="2"></path>
    </g>
</svg>