<svg preserveAspectRatio="xMidYMid meet" data-bbox="20 53.499 160.001 93.001" viewBox="20 53.499 160.001 93.001" height="200" width="200" xmlns="http://www.w3.org/2000/svg" data-type="color" role="img" aria-labelledby="comp-k02hyeas-svgtitle"><title id="comp-k02hyeas-svgtitle">Whale Icon</title>
    <g>
        <path d="M132.648 78.997c2.721-4.754 2.78-3.832 6.526-1.654 3.194 1.857 6.341 4.684 7.793 6.261 3.326 3.613 3.371 3.543 5.919 2.361 2.42-1.123 3.575-1.535 8.215-2.398 4.611-.858 6.926-1.853 10.328.863 2.709 2.163 3.402 6.112.68 7.471s-4.396 3.382-8.743 3.943c-4.982.643-6.998.745-9.931 3.885-2.694 2.884-2.845 7.505-4.147 11.156-4.899 13.737-14.345 22.615-28.295 27.183-21.261 6.963-50.004 12.868-70.73 3.84-8.783-3.826-20.349-11.296-27.245-23.132-11.46-19.67 12.188-50.342 29.524-55.264 19.28-5.474 35.731-4.389 48.6 11.026 11.045 13.231 12.318 23.985 16.011 29.489 3.195 4.763 4.765 10.499 10.475 12.513 14.573 5.14 17.267-11.735 17.643-20.285 0-.001-15.735-11.822-12.623-17.258z" fill="#FFCFAE" data-color="1"></path>
        <path d="M165.526 74.78c2.826-1.809 17.779-8.313 13.808-13.503-4.504-5.887-17.753 10.507-14.85 12.983" fill="#4692D8" data-color="2"></path>
        <path d="M153.019 75.821c3.255-1.277 6.311-6.326 2.87-9.107-5.32-4.299-5.692 7.266-2.87 10.147" fill="#213472" data-color="3"></path>
        <path d="M46.747 118.478c-2.602-1.001-7.729.338-7.212 3.928.327 2.27 2.93 3.652 4.992 3.98 1.152.183 2.358.128 3.35-.549.217-.148.399-.326.564-.515a3.762 3.762 0 0 0 1.492-2.379c.373-2.151-1.315-3.746-3.186-4.465z" fill="#213472" data-color="3"></path>
        <path d="M161.548 61.81c-.424-.896-.77-1.814-1.107-2.751-.368-1.022-.666-2.082-.479-3.173.121-.702.915-2.223 1.862-1.549.717.51.949 1.921.93 2.736-.021.911-.163 1.905-.51 2.753-.095.232-.239.45-.315.691-.087.277-.024.535-.066.814-.054.36-.184.243-.49.326.015.079.022.146.088.212 0-.025-.008-.061-.001-.086" fill="#F97338" data-color="4"></path>
        <path d="M162.135 61.467c-.495-1.082-.962-2.217-1.291-3.363-.201-.701-.442-1.586-.162-2.297.274-.696.961-.939 1.227-.035.278.947.2 2.043-.04 2.986-.126.495-.39.933-.528 1.417-.11.384-.08.829-.217 1.202l.475-.474c-.129.06-.264.093-.407.099-.333.054-.606.522-.475.835l.088.212c.274.656 1.348.651 1.336-.181l-.001-.086c-.012-.873-1.373-.876-1.361 0l.001.086 1.336-.181-.088-.212-.475.835c.656-.107.823-.372.99-.981.279-1.015.661-2.082.802-3.147.183-1.384.178-3.577-1.178-4.433-1.296-.818-2.456.536-2.797 1.695-.644 2.184.7 4.764 1.589 6.707.365.795 1.538.106 1.176-.684z" fill="#F97338" data-color="4"></path>
    </g>
</svg>